<svg width="143" height="118" fill="none" xmlns="http://www.w3.org/2000/svg"><path d="M54.676 65.612c-26.886 3.9-37.656-10.85-37.656-10.85 8.962-10.935 21.295-17.717 21.706-17.886 14.306 12.376 15.95 28.736 15.95 28.736z" fill="#FFAC00"/><path d="M52.785 64.34S40.37 52.811 22.693 54.507c0-.085 9.29 11.783 30.092 9.833z" fill="#EF6E00"/><path d="M38.726 36.876C24.502 52.642 17.02 54.761 17.02 54.761c8.962-10.935 21.295-17.717 21.706-17.886z" fill="#FFC800"/><path d="M55.087 65.612c26.886 3.815 37.657-10.85 37.657-10.85-8.962-10.936-21.295-17.717-21.706-17.887-14.224 12.377-15.95 28.737-15.95 28.737z" fill="#FFAC00"/><path d="M56.978 64.34s12.416-11.529 30.093-9.833c0-.085-9.29 11.783-30.093 9.833z" fill="#EF6E00"/><path d="M71.038 36.875c14.224 15.767 21.706 17.886 21.706 17.886-8.962-10.935-21.295-17.717-21.706-17.886z" fill="#FFC800"/><path d="M94.389 74.852V118H23.186l-5.673-32.043-1.891-11.105h78.767z" fill="#338974"/><path d="M66.27 118H55.58l-4.44-43.148h13.978L66.27 118z" fill="#FFAC00"/><path d="M35.684 118H23.186l-7.564-43.148h17.02L35.684 118z" fill="#266157"/><path d="M30.422 118h-4.687l-5.098-43.148-.41-3.645 7.81-.933.247 4.578L30.422 118z" fill="#FFAC00"/><path d="M94.389 74.852v6.188l-60.925 5.51-15.951-.593-1.891-11.105h78.767z" fill="#C1C1C1"/><path d="M97.76 78.836l-34.697 2.458-13.813.933-18.335 1.271-16.362-.847-4.029-16.022 18.006-.424 17.349-.508 17.184-.424 33.71-.848.987 14.41z" fill="#46AB8D"/><path d="M63.063 65.273v16.021l-13.813.933-3.371-16.53 17.184-.424z" fill="#FFC800"/><path d="M30.915 83.498l-4.851-.254-6.496-.34-5.015-.254-4.029-16.021 5.673-.17 8.469-.17 3.864-.084 2.385 17.293z" fill="#338974"/><path d="M26.064 83.244l-6.496-.34-3.37-16.445 8.468-.17 1.398 16.955z" fill="#C18300"/><path d="M16.197 66.46l-6.166 24.922 5.59-2.29 3.372 5.087 5.673-27.89-8.469.17zm57.965-1.357l3.125 27.89 5.755-5.68 4.687 5.086-2.467-27.635-11.1.34z" fill="#FFC800"/><path d="M96.609 78.666s9.784 2.204 22.692-12.207l-9.044-10.596s-12.58 7.883-13.648 22.803z" fill="#FF458F"/><path d="M97.513 78.242s6.906-.085 10.688-9.494c0 0-5.755.254-10.688 9.494z" fill="#AC125B"/><path d="M110.257 55.778s.987 3.645 3.124 6.443c2.138 2.797 5.92 4.153 5.92 4.153l-9.044-10.596z" fill="#FF8DC3"/><path d="M96.609 78.666S86.824 80.87 73.916 66.46l9.044-10.596s12.497 7.884 13.649 22.803z" fill="#FF458F"/><path d="M95.622 78.242s-6.907-.085-10.689-9.494c.082 0 5.756.254 10.689 9.494z" fill="#AC125B"/><path d="M82.878 55.778s-.987 3.645-3.125 6.443c-2.137 2.797-5.92 4.154-5.92 4.154l9.045-10.597z" fill="#FF8DC3"/><path d="M130.894 117.999h-55.58l-.905-8.053-.493-5.001-.411-3.137-.576-5.001-.411-4.07-.576-5.425 18.089-.17 10.688-.169 29.435-.339.165 6.104.082 4.069.082 5.001.082 3.137.083 5.001.246 8.053z" fill="#009BCD"/><path d="M130.483 101.808H73.505l-.576-5.001h57.472l.082 5.001zm.165 8.138H74.409l-.493-5.001h56.649l.083 5.001z" fill="#00BCE5"/><path d="M101.295 117.999h-8.304l-2.96-30.856 10.688-.17.576 31.026z" fill="#FF458F"/><path d="M130.319 92.738H72.518l-.576-5.426 18.089-.17 10.688-.169 29.435-.339.165 6.104z" fill="#C1C1C1"/><path d="M132.539 77.564v12.461l-30.093.424-8.633.085-24.255.34-.822-11.614 24.173-.679 10.606-.254 29.024-.763z" fill="#009BCD"/><path d="M103.515 78.327l-1.069 12.122-8.633.085-.904-11.953 10.606-.254z" fill="#FF458F"/><path d="M70.463 88.669l-.823-8.731 20.966-.509-19.075 2.628-1.069 6.612z" fill="#00BCE5"/><path d="M96.526 78.582c-4.44-1.95-10.442 1.865-12.58 5.85-.246-.255-.41-.425-.657-.594-3.782-2.628-10.113-.424-9.373 4.916 0 .255.41.255.493 0 .822-4.492 5.755-4.916 8.469-1.95-.576 1.95-.823 4.07-.494 5.935.33 1.695 1.563 3.56 3.454 2.797 3.535-1.441 1.315-6.782-.905-9.833a10.786 10.786 0 0 1 3.042-4.154c2.631-2.289 5.345-2.035 8.469-2.628.165-.085.165-.339.082-.339zM84.933 91.043c.165.594.33 2.374-.658 1.272-.41-.509-.246-2.035-.246-2.543 0-.34.082-.678.082-1.018.411.679.658 1.442.822 2.29zm28.859-11.105c-1.233.594-1.973 1.441-2.384 2.459-3.453-3.9-8.798-5.934-14.224-4.154-.658.17-.329 1.102.247 1.017 5.426-.932 10.524 1.017 13.484 5.001-.165 2.628 1.397 5.765 2.877 7.715.411.508 1.316.084 1.234-.509-.247-3.052-1.316-5.85-3.042-8.138.657-1.61 2.795-3.052 4.439-2.543 3.454 1.102 3.865 4.578 5.838 7.12.329.424 1.069.085.987-.423-.329-4.324-4.851-9.918-9.456-7.545zm-1.808 5.85c.493.847.822 1.78 1.151 2.712-.411-.678-.823-1.441-.987-2.289-.082-.17-.082-.254-.164-.424zM86.33 22.21l-3.452 1.695-.576 3.815-2.63-2.883-3.7.594 1.808-3.39-1.727-3.477 3.782.679 2.714-2.713.41 3.9 3.372 1.78zM68.49 5.68l-1.974-.848-1.727 1.187.165-2.12-1.645-1.356 1.974-.509.74-2.034 1.15 1.865 2.056.085-1.315 1.61.575 2.12zM54.923 40.52l-1.891-.763-1.727 1.187.083-2.12-1.563-1.356 1.974-.509.74-2.034 1.15 1.78 2.056.17-1.315 1.61.493 2.035z" fill="#FF458F"/><path d="M68.572 24.584l-3.207 1.525-.658 3.645-2.466-2.712-3.536.593 1.727-3.306-1.563-3.306 3.536.763 2.549-2.628.41 3.645 3.207 1.78z" fill="#48B5FF"/><path d="M136.321 44.08c-.411 2.374-1.562 5.087-3.536 6.443-.329-.594-.74-1.102-1.233-1.61-.493-.51-.987-.933-1.562-1.272a9.702 9.702 0 0 0-1.316-.678c-.493-.17-.986-.34-1.48-.424-1.069-.17-2.137-.17-3.289-.255-.493 0-.986-.084-1.479-.17-1.48-.253-2.96-1.101-3.454-2.542.411-.255.822-.594 1.151-.848 1.316.509 2.796.424 4.111.085l.987-.255c1.069-.339 2.22-.678 3.289-.762a7.675 7.675 0 0 1 1.973 0l1.48.254c.658.17 1.233.339 1.809.593a6.802 6.802 0 0 1 2.549 1.441z" fill="#00DFB3"/><path d="M133.936 42.639l-2.384 6.358c-.493-.509-.987-.933-1.562-1.272l2.138-5.68c.575.085 1.233.34 1.808.594zm-3.288-.932l-1.974 5.256c-.493-.17-.986-.34-1.48-.424-1.069-.17-2.137-.17-3.288-.255l1.397-3.814c1.069-.34 2.22-.678 3.289-.763a8.332 8.332 0 0 1 2.056 0z" fill="#37F8CB"/><path d="M93.895 36.367c-1.069 1.61-1.809 3.73-1.397 5.679.493-.17.986-.17 1.562-.17.493 0 1.069.085 1.562.17.41.085.74.17 1.15.34.33.169.74.338 1.07.592.74.51 1.315 1.102 1.973 1.696.329.254.576.508.904.763.987.678 2.303 1.017 3.289.509-.082-.424-.164-.764-.164-1.187-.987-.424-1.809-1.357-2.385-2.29-.164-.253-.246-.508-.411-.677-.493-.763-.904-1.61-1.48-2.29a4.87 4.87 0 0 0-1.15-1.101c-.33-.254-.659-.509-.987-.678a9.71 9.71 0 0 0-1.316-.678 3.95 3.95 0 0 0-2.22-.678z" fill="#009BCD"/><path d="M96.033 36.875l-2.056 4.917c.494 0 1.07.085 1.563.17l1.808-4.409c-.328-.254-.822-.508-1.315-.678zm2.384 1.356l-1.726 4.07c.328.169.74.338 1.069.593.74.508 1.315 1.102 1.973 1.695l1.233-2.967c-.493-.763-.904-1.61-1.48-2.288-.247-.424-.658-.764-1.069-1.103z" fill="#00BCE5"/><path d="M20.884 36.622c-.247 1.525-.987 3.22-2.302 4.153-.247-.339-.494-.678-.822-1.017-.33-.339-.658-.593-.987-.848a2.995 2.995 0 0 0-.905-.423c-.328-.085-.657-.255-.904-.255-.658-.17-1.398-.17-2.138-.17-.329 0-.657-.084-.986-.084-.905-.17-1.891-.763-2.22-1.61.246-.17.493-.34.74-.594.822.339 1.809.254 2.63.085.248-.085.412-.085.659-.17.74-.17 1.397-.424 2.137-.508.411-.085.822 0 1.234 0 .329 0 .657.084.986.169.411.085.822.254 1.151.424.74.17 1.316.508 1.727.848z" fill="#00DFB3"/><path d="M19.322 35.688l-1.48 4.07c-.33-.34-.658-.594-.987-.849l1.316-3.645c.41.17.74.255 1.15.424zm-2.138-.593l-1.233 3.39c-.33-.084-.658-.254-.905-.254-.657-.17-1.397-.17-2.137-.17l.904-2.458c.74-.17 1.398-.424 2.138-.508h1.233z" fill="#37F8CB"/><path d="M129.661 67.392c1.233 1.696 3.124 3.391 5.18 3.645.082-.593.164-1.187.329-1.695a5.685 5.685 0 0 1 .74-1.61 5.37 5.37 0 0 1 .822-1.103c.329-.339.658-.678.986-.932.74-.594 1.645-1.017 2.467-1.526.411-.254.74-.424 1.069-.763.987-.763 1.891-2.035 1.727-3.306-.412 0-.823-.085-1.234-.254-.822.932-2.055 1.44-3.206 1.695-.329.085-.576.17-.905.17-.986.17-1.973.339-2.877.678a6.638 6.638 0 0 0-1.563.763c-.329.254-.74.508-1.069.847a7.75 7.75 0 0 0-1.151 1.187c-.575.763-.986 1.526-1.315 2.204z" fill="#C692F1"/><path d="M130.977 65.273l4.193 4.069a5.687 5.687 0 0 1 .74-1.611l-3.782-3.645-1.151 1.187zm2.302-2.034l3.535 3.39c.329-.339.658-.678.987-.932.74-.594 1.644-1.017 2.466-1.526l-2.466-2.374c-.987.17-1.974.34-2.878.678a4.942 4.942 0 0 0-1.644.764z" fill="#E1C0FF"/><path d="M1.973 66.12c1.48.17 3.125.764 4.03 2.035-.33.255-.659.509-.905.848-.247.34-.494.678-.74 1.102-.083.254-.247.593-.33.848-.081.339-.164.593-.164.932-.082.678 0 1.441 0 2.12 0 .339 0 .678-.082.932-.082.932-.575 1.95-1.398 2.289-.164-.255-.41-.509-.575-.678.247-.848.082-1.78-.165-2.628 0-.17-.082-.424-.164-.594-.247-.678-.493-1.356-.658-2.119-.082-.424-.082-.848-.082-1.271 0-.34.082-.679.082-1.018.082-.424.165-.847.33-1.187a9.774 9.774 0 0 1 .821-1.61z" fill="#FF458F"/><path d="M1.151 67.816l3.947 1.272c-.247.339-.494.678-.74 1.102L.822 69.088c.165-.509.247-.932.329-1.272zm-.411 2.12l3.289 1.017c-.082.339-.165.593-.165.932-.082.678 0 1.441 0 2.12l-2.384-.763a11.687 11.687 0 0 1-.658-2.035C.74 70.868.74 70.36.74 69.936z" fill="#FF8DC3"/><path d="M43.577 13.818c1.48.17 3.124.678 4.11 1.865-.328.254-.657.508-.904.847-.247.34-.493.678-.658 1.102-.164.255-.246.594-.328.933-.083.339-.165.678-.165.932-.082.678 0 1.441 0 2.12v.932c-.082.932-.493 1.95-1.315 2.373-.165-.254-.411-.508-.576-.678.247-.847.082-1.78-.164-2.628-.083-.17-.165-.423-.247-.593-.247-.678-.493-1.356-.658-2.034-.082-.424-.082-.848-.082-1.272 0-.339 0-.678.082-1.017.082-.424.165-.848.247-1.187.082-.678.329-1.271.658-1.695z" fill="#FF458F"/><path d="M42.837 15.428l3.946 1.102c-.247.34-.493.678-.658 1.102l-3.535-1.017c0-.34.082-.763.247-1.187zm-.412 2.204l3.29.933c-.083.339-.165.678-.165.932-.082.678 0 1.441 0 2.12l-2.385-.679c-.246-.678-.493-1.356-.657-2.034 0-.424-.083-.848-.083-1.272z" fill="#FF8DC3"/><path d="M5.262 42.47C3.207 43.148.987 44.42 0 46.454a4.658 4.658 0 0 1 1.48 1.017c.493.424.904.848 1.233 1.357.247.339.494.762.74 1.186.247.424.411.848.494 1.357.328 1.017.41 2.034.575 3.051.082.424.165.933.329 1.357.411 1.271 1.316 2.627 2.549 2.967a5.45 5.45 0 0 1 .658-1.187c-.576-1.187-.658-2.543-.494-3.815 0-.339.082-.678.165-.932.164-1.018.329-2.12.41-3.137 0-.593-.081-1.187-.246-1.865a8.525 8.525 0 0 0-.411-1.356 5.7 5.7 0 0 0-.74-1.61c-.329-1.103-.904-1.78-1.48-2.374z" fill="#009BCD"/><path d="M6.824 44.589L1.48 47.386c.493.424.904.848 1.233 1.356l4.77-2.543a13.261 13.261 0 0 0-.659-1.61zm1.151 2.967l-4.44 2.373c.247.424.412.848.494 1.356.329 1.018.41 2.035.575 3.052l3.207-1.695c.164-1.017.329-2.12.411-3.137-.082-.678-.164-1.271-.247-1.95z" fill="#00BCE5"/><path d="M80.74 10.935c-2.302 0-2.302 3.645 0 3.645s2.302-3.645 0-3.645zm19.568 1.781c-2.302 0-2.302 3.645 0 3.645 2.22 0 2.22-3.645 0-3.645zm-87.399 92.229c-2.303 0-2.303 3.645 0 3.645 2.22 0 2.302-3.645 0-3.645zM52.95 8.731c-1.316 0-1.316 2.12 0 2.12 1.315.084 1.315-2.12 0-2.12zm61.171 27.042c-1.315 0-1.315 2.119 0 2.119 1.398 0 1.398-2.12 0-2.12zM99.24 26.279c-1.316 0-1.316 2.12 0 2.12 1.397 0 1.397-2.12 0-2.12zM2.384 89.856c-1.315 0-1.315 2.12 0 2.12 1.398 0 1.398-2.12 0-2.12zm122.015-34.077c-1.316 0-1.316 2.119 0 2.119 1.315 0 1.315-2.12 0-2.12z" fill="#FFAC00"/></svg>