<svg width="138" height="132" fill="none" xmlns="http://www.w3.org/2000/svg"><g clip-path="url(#clip0)"><path d="M28.785 75.832s2-2.333 5.387-1.71c3.464.544 4.464 1.244 4.464 1.244s1.232-3.112 3.617-3.578c2.386-.545 4.465 2.022 4.465 2.022l-8.467 5.834-9.466-3.812zm74.656 0s-2.001-2.333-5.387-1.71c-3.464.544-4.464 1.244-4.464 1.244s-1.232-3.112-3.618-3.578c-2.385-.545-4.464 2.022-4.464 2.022l8.467 5.834 9.466-3.812z" fill="#EF6E00"/><path d="M97.669 76.61v6.223l-31.017 9.645L34.634 81.2v-4.59s2.001-1.166 5.695-2.489c9.236-3.344 28.863-7.934 53.415 1.011 1.308.467 2.617.934 3.925 1.478z" fill="#BD401E"/><path d="M97.669 76.61v6.223l-31.017 9.645L34.634 81.2v-4.59s2.001-1.166 5.695-2.489c4.85 2.334 13.931 5.756 24.322 5.056 10.467-.778 22.474-2.8 29.093-4.045 1.308.467 2.617.934 3.925 1.478z" fill="#A92A09"/><path d="M103.441 75.832c-.384.39-.846.856-1.231 1.4-7.235 9.257-15.393 37.493-15.393 37.493-7.774 3.889-20.704 6.456-20.704 6.456s-12.93-2.645-20.704-6.456c0 0-8.081-28.236-15.393-37.492-.462-.545-.847-1.012-1.231-1.4 0 0 5.849-1.556 8.466 3.655 0 0 5.695-4.2 8.466 1.867 0 0 4.08-4.59 7.466 1.556 0 0 5.464-4.356 8.081 2.255 0 0 1.616-3.422 4.849-3.422 2.54 0 4.849 3.422 4.849 3.422 2.54-6.611 8.081-2.177 8.081-2.177 3.387-6.145 7.466-1.556 7.466-1.556 2.77-6.067 8.466-1.867 8.466-1.867 2.694-5.29 8.466-3.734 8.466-3.734z" fill="#FFC600"/><path d="M102.21 77.233c-.693.855-1.385 1.866-2.078 3.033-1.155 1.945-2.386 4.356-3.464 6.845-.384.856-.77 1.711-1.077 2.567-1.078 2.49-2.078 5.134-3.002 7.7-.077.234-.23.545-.308.779-1 2.722-1.924 5.444-2.694 7.778-1.693 5.134-2.77 8.79-2.77 8.79-7.774 3.889-20.704 6.456-20.704 6.456s-12.93-2.645-20.704-6.456c0 0-.385-1.478-1.154-3.812v-.155a117.536 117.536 0 0 0-1.848-5.679c-.77-2.333-1.693-4.9-2.616-7.622-1.001-2.723-2.078-5.523-3.233-8.168-1.078-2.645-2.309-5.134-3.464-7.312-1-1.866-2.078-3.578-3.078-4.822 2.001 0 4.926.622 6.619 3.967 0 0 5.85-4.278 8.697 1.944 0 0 4.156-4.744 7.62 1.634 0 0 5.618-4.512 8.235 2.256 0 0 1.693-3.5 4.926-3.579 2.617 0 4.926 3.5 4.926 3.5 2.617-6.766 8.235-2.255 8.235-2.255 3.464-6.378 7.62-1.633 7.62-1.633 2.847-6.223 8.62-1.945 8.62-1.945 1.77-3.111 4.695-3.811 6.696-3.811z" fill="#FFA000"/><path d="M100.132 80.266c-2.694 4.512-5.388 10.968-7.62 17.035-2.309 6.3-4.156 12.212-5.08 15.246-.384 1.322-.615 2.178-.615 2.178-7.774 3.889-20.704 6.456-20.704 6.456s-12.93-2.645-20.704-6.456c0 0-.154-.623-.539-1.789-.153-.623-.384-1.323-.692-2.178-2.078-6.612-6.465-20.147-11.083-28.703.538.078 1.077.311 1.847.856 2.232 1.478 9.159 21.546 10.082 24.346-.923-2.956-7.927-24.657-4.464-24.813 3.695-.156 9.544 26.136 9.775 27.069-.154-.856-4.541-25.047-1.847-25.358 2.694-.31 6.619 25.747 6.619 25.747s-1.77-24.347 1.231-24.502c3.002-.234 4.618 25.435 4.618 25.435s.54-24.657 5.08-24.813c4.618-.233 6.388 24.813 6.388 24.813s.308-23.957 3.156-24.58c2.848-.544 2.77 22.247 2.77 22.247s2.156-23.647 4.234-24.191c2.078-.467 1.462 21.391 1.462 21.391s3.848-23.18 6.465-23.336c2.54-.155-.923 19.991-1.077 21.08.308-.934 5.233-22.246 10.698-23.18z" fill="#EF6E00"/><path d="M87.51 112.547c-.385 1.322-.616 2.178-.616 2.178-7.774 3.889-20.704 6.456-20.704 6.456s-12.93-2.645-20.704-6.456c0 0-.154-.623-.539-1.789 5.85 2.255 17.164 6.378 21.243 6.378 4.233.078 16.086-4.589 21.32-6.767z" fill="#FFC600"/><path d="M89.049 78.866c-.154.078-.385.078-.539.156-1.385.389-2.925.7-4.618.933-14.47 2.256-38.252.622-41.715-1.089-3.926-1.945-6.542-3.967-7.004-8.012-.462-4.044 4.079-5.056 4.079-5.056-4.156-8.712 8.235-8.712 8.235-8.712-1.693-7.778 6.85-5.833 6.85-5.833-.693-8.634 8.928-7.779 8.928-7.779-.154-2.722 3.618-3.111 5.157-3.344 1.54-.234 2.155-3.034 2.155-3.034 11.006.389 12.546 12.29 12.546 12.29 6.08 4.434 3.54 9.567 3.54 9.567 8.081 1.167 6.542 8.945 6.542 8.945s8.928 7.234-4.156 10.968z" fill="#FFE0AA"/><path d="M81.814 48.92c-1.231-.312-2.54-.39-3.848-.468a41.14 41.14 0 0 1-4.464-.7c-1.386-.31-2.694-.7-4.002-1.089-1.463-.466-2.925-.933-4.31-1.633-.231-.078-.385.155-.154.311 1.23.7 2.385 1.478 3.77 2.022 1.463.545 2.925 1.09 4.465 1.4 2.694.623 5.926 1.245 8.543.312.077-.078.077-.156 0-.156zm2.54 10.189c-2.386-.156-4.849-.078-7.235-.389-2.386-.233-4.849-.7-7.235-1.245a67.56 67.56 0 0 1-13.7-5.056c-.307-.155-.615.312-.307.467 4.233 2.645 8.85 4.434 13.7 5.6 2.385.545 4.771 1.012 7.157 1.245 2.463.234 5.157.545 7.62.156.539 0 .539-.7 0-.778zm6.311 8.711c-7.62-.388-15.24-.388-22.705-1.788-6.696-1.245-12.93-3.656-18.625-7.39-.231-.155-.462.234-.308.39 5.156 4.355 11.93 6.766 18.471 8.01 7.62 1.479 15.47 1.557 23.167 1.323.308 0 .308-.544 0-.544zm-2.232 11.202c-1.385.388-2.925.7-4.618.933-.923-.156-1.924-.233-2.847-.389-6.85-.933-13.547-2.567-20.089-4.59-6.542-2.022-12.853-4.433-18.933-7.622-.231-.156 0-.467.23-.39 3.618 1.557 7.312 3.112 11.007 4.435 6.311 2.333 12.776 4.044 19.395 5.445 3.31.7 6.696 1.166 10.006 1.633 2 .233 3.925.389 5.85.544z" fill="#FFC781"/><path d="M42.1 69.766l-.462-.234c-1.232-.544-2.77-1.089-3.848-.233-2.155 1.711.154 4.433 1.616 5.6 2.001 1.478 4.387 2.334 6.696 2.956a45.087 45.087 0 0 0 13.315 1.322c.539 0 1.078-.077 1.54-.389.461-.31.769-.855.538-1.4-.154-.31-.462-.544-.77-.7-1.539-.855-3.232-1.089-4.925-1.478-4.772-1.089-9.16-3.422-13.7-5.444zm.77-8.09c-.155.7 0 1.478.384 2.178.385.622 1 1.166 1.616 1.633 5.08 3.734 11.545 5.367 17.549 6.767 6.85 1.634 14.161 3.19 21.242 2.1 1.078-.155 2.155-1.01 1.924-2.1-.23-1.089-1.462-1.4-2.54-1.555-6.31-.934-12.545-1.867-18.856-2.8-5.234-.778-10.39-2.412-14.547-5.757-1.231-1.01-2.77-2.178-4.387-2.333-1.308-.233-2.155.7-2.386 1.867zm9.774-4.667c.385 1.166 1.462 1.789 2.54 2.411 7.08 3.811 15.162 5.678 23.243 5.523 1.617 0 .847-1.478-.307-1.634-5.08-.777-9.929-1.71-14.7-3.733-2.925-1.245-5.62-2.723-8.313-4.434-.308-.156-.539-.389-.924-.389-1.231-.233-1.77 1.322-1.539 2.256zm7.312-6.768c.615.778 1.462 1.323 2.309 1.79 4.54 2.41 9.774 3.189 14.854 2.877.847-.077 1.847-.388 1.847-1.244-.077-.545-.692-.934-1.154-1.09-2.848-1.166-5.773-2.333-8.62-3.5-2.155-.855-5.542-3.033-7.928-2.722-2.078.311-2.386 2.49-1.308 3.89zm13.7-8.089a6.968 6.968 0 0 0-2.54 0c-.308.078-.693.233-.693.544 0 .234.231.467.385.623 2.078 1.711 4.618 2.878 7.312 3.422.538.078 1.308.078 1.54-.389.153-.389 0-.855-.232-1.244-1.154-2.1-2.848-4.123-4.849-5.367-2.694-1.478-3.232 1.478-.923 2.411z" fill="#FFEBD1"/><path d="M65.497 30.484c-1.539 1.011-2.155 3.034-1.924 4.9.231 1.867 1.232 3.501 2.54 4.823.847.934 1.924 1.712 3.156 1.867 1.308.233 2.616-.311 3.694-.933 2.925-1.79 4.772-5.367 4.08-8.712-.232-1.011-.77-2.1-1.694-2.49-1.77-.855-3.079 1.012-4.772.779-1.847-.234-3.156-1.556-5.08-.234z" fill="#D4052B"/><path d="M67.114 31.029c-.77.078-1.54.544-1.694 1.322-.154.545.154 1.167.616 1.556.462.389 1 .622 1.54.778 2.462.622 5.233 0 6.926-1.867.462-.467.847-1.245.462-1.789-.23-.467-.846-.622-1.385-.467-.539.156-.924.467-1.309.778-.384.389-.77.7-1.231.933-1.231-.388-2.54-1.4-3.925-1.244z" fill="#FF2137"/><path d="M71.039 41.374c.77-.155 1.462-.544 2.078-1.011.539-.389 1.385-1.089 1.616-1.79.231-.544-.385-.31-.77-.232l-1.154.466c-.77.234-1.462.467-2.232.622-.77.156-1.54.156-2.309.078-.385 0-.77-.078-1.154-.233-.154 0-.847-.389-.924-.311-.23.155.539.933.616 1.011.462.545 1.077.856 1.77 1.089.847.467 1.693.467 2.463.311zm2.617-21.702c-.077-.155-.231-.466-.462-.466-.154 0-.231 0-.308.155v.233c-2.001 1.245-3.31 3.19-3.771 5.523-.54 2.567.308 4.9 1.231 7.312-.308-.233-.539-.467-.924-.622-.307-.078-.77-.078-1 .233-.154.233-.23.544-.154.778.077.311.23.544.385.778.539.622 1.385 1.089 2.232 1.01.846-.077 1.616-.7 1.77-1.555.077-.467-.077-1.011-.462-1.244-.308-.156-.692-.156-.923 0-.308.155-.462.389-.693.622-1.54-4.434-1.924-9.645 2.617-12.446.154.39.692.078.462-.31z" fill="#B02100"/><path d="M42.715 71.71c-.308-.311-.77-.233-1.077 0-.462.389-1 .778-1.232 1.322-.23.467.154 1.012.616.856.616-.156 1.155-.7 1.616-1.089.385-.311.308-.856.077-1.089zm42.178 1.089c-.231-.311-.539-.545-.847-.778-.308-.233-.616-.467-.923-.622-.385-.234-1.001.233-.693.7.23.31.462.622.77.855.23.234.461.467.77.623.076.078.153.078.23.078.462.233 1-.312.693-.856zM62.265 60.742c-.616-.466-1.232-.933-1.925-1.4-.461-.31-1.077.39-.615.856.538.467 1.077 1.011 1.693 1.478a.6.6 0 0 0 .847 0c.23-.234.23-.7 0-.934zm1.693-11.434a6.738 6.738 0 0 0-.77.467c-.308.155-.615.155-.846.389-.231.233-.154.544.077.7.692.389 1.77-.156 2.309-.622.538-.467-.154-1.323-.77-.934zm18.01 4.667c-.308-.544-.77-1.011-1.154-1.478-.385-.466-1.078.156-.77.623.308.544.693 1.089 1.077 1.555.385.39 1.155-.155.847-.7zm-4.079-10.578c-.231-.234-.539-.311-.847-.078-.077.078-.154.155-.154.233-.23.156-.385.39-.616.545-.23.155-.154.544 0 .7.231.233.54.155.693 0l.616-.467c.077 0 .077 0 .154-.078.308-.155.385-.544.154-.855z" fill="#009BCD"/><path d="M48.642 64.476c-.54-.389-1.155-.778-1.77-.933-.462-.156-.77.466-.462.777.461.545 1 .934 1.539 1.323.693.466 1.385-.7.693-1.167zm13.007 13.379l-1.309-.389c-.77-.233-1.077 1.011-.307 1.245.461.155.846.31 1.308.389.77.233 1.078-1.012.308-1.245zm10.159-5.445c-.307-.233-.692-.156-.923.156-.308.389-.539.778-.77 1.166-.308.545.462 1.167.847.7.308-.388.616-.7.923-1.088.231-.234.231-.623-.077-.934zm13.085-9.1c-.462.31-1 .544-1.54.777-.538.311-.153 1.245.385 1.011.539-.233 1.078-.466 1.54-.622 1-.311.384-1.711-.385-1.167zm-16.317-9.724c-.231-.31-.539-.622-.77-.933-.385-.39-1 .155-.77.544.231.39.385.7.616 1.011.231.39.462.778.924.778.23 0 .385-.155.462-.389.077-.31-.231-.622-.462-1.01zm3.694-9.567c-.23-.311-.615-.311-.923-.078-.154.156-.385.311-.54.467-.384.31 0 .933.463.777a5.08 5.08 0 0 0 .615-.233c.385-.233.616-.622.385-.933z" fill="#FF458F"/><path d="M49.72 75.21a1.891 1.891 0 0 0-.694-.31c-.153 0-.307-.079-.461-.079-.385 0-.693.078-1 .311-.155.156-.232.467-.078.623.231.31.539.466.924.544.154.078.385.078.539.078.23 0 .461 0 .692-.078.308-.155.385-.855.077-1.089zm11.929-7.156c-.924.311-1.924.622-2.77 1.09-.386.232-.232.933.23.855 1-.078 2.001-.39 2.925-.623.846-.233.462-1.633-.385-1.322zm10.852-5.289l-1.154-.934c-.385-.31-.77-.622-1.232-.622-.308 0-.615.389-.538.7.153.467.615.7.923 1.011l1.155.934c.615.389 1.462-.623.846-1.09zm3.309-10.19c-.23-.233-.538-.233-.769 0l-1.154 1.167c-.308.311.076 1.011.538.7.462-.311.924-.7 1.386-1.011.23-.234.23-.7 0-.856z" fill="#FFAC00"/><path d="M68.138 16.801l-5.03 2.273-.98 5.541-3.773-4.12-5.45.71 2.795-4.83-2.516-4.973 5.45.995 4.054-3.836.559 5.54 4.891 2.7zm-47.708.001l-2.77 1.322-.539 3.033-2.001-2.333-3.002.467 1.463-2.723-1.309-2.722 3.002.622 2.155-2.178.385 3.111 2.617 1.4zM26.28.778l-.77 1.867 1.155 1.633-2.001-.078-1.232 1.556-.539-1.945-1.847-.7 1.694-1.089L22.817 0l1.539 1.322L26.28.778zm59.945 9.183l-1.077 1.711.77 1.867-1.925-.544-1.539 1.322-.077-2.022-1.693-1.09 1.847-.7.462-1.944 1.231 1.556 2.001-.156zM25.28 75.14l-.924 1.322.616 1.478-1.54-.39-1.231 1.012-.077-1.633-1.386-.856 1.54-.545.385-1.555 1 1.244 1.616-.078zm28.939-23.102l-1.309.155-.692 1.245-.54-1.245-1.385-.233 1-.933-.153-1.4 1.154.7 1.309-.623-.308 1.323.924 1.01zm61.803 23.257l-1.385.156-.616 1.167-.616-1.245-1.308-.233 1.001-.934-.231-1.4 1.231.7 1.232-.622-.308 1.4 1 1.011zM40.21 54.916l-1.77 1.556.231 2.41-2-1.322-2.156 1.012.539-2.334-1.616-1.789 2.386-.155 1.154-2.1.924 2.255 2.309.467zm62.805 0l-1.847 1.556.231 2.41-2.001-1.322-2.155 1.012.615-2.334-1.616-1.789 2.386-.155 1.154-2.1.924 2.255 2.309.467z" fill="#FFC600"/></g><defs><clipPath id="clip0"><path fill="#fff" d="M0 0h138v132H0z"/></clipPath></defs></svg>