<svg width="137" height="115" fill="none" xmlns="http://www.w3.org/2000/svg"><g clip-path="url(#clip0)"><path d="M124.125 80.876l-40.276-16.08-10.913-4.394 4.632-4.706 12.64-12.708 13.19-13.258 11.541-11.61 7.223-7.216.392 13.806.471 16.709.236 9.335.235 9.884.629 20.238z" fill="#009BCD"/><path d="M124.125 80.877L72.936 60.403l4.632-4.707 45.928 4.863.629 20.318z" fill="#FF458F"/><path d="M123.339 50.754l-33.13-7.688 13.267-13.336 19.549 11.689.314 9.335z" fill="#FFC800"/><path d="M122.554 24.71l-7.537-6.59 7.223-7.216.314 13.806z" fill="#FF458F"/><path opacity=".4" d="M83.849 64.795l-10.913-4.393 4.632-4.706 12.64-12.708 13.19-13.257 11.541-11.61 7.223-7.217-38.313 53.891z" fill="#fff"/><path d="M124.125 80.876s-1.571 0-4.24-.156c-9.186-.55-31.09-3.217-44.044-16.866-1.02-1.098-2.041-2.275-2.905-3.452 0 0 32.346-1.098 51.189 20.474z" fill="#007E9D"/><path d="M120.592 79.072c-9.186-.549-31.09-3.216-44.044-16.866 8.4.393 29.127 2.903 44.044 16.866z" fill="#C1C1C1"/><path d="M132.525 9.256l-5.574 1.726-1.727 5.648-3.455-4.785-5.81.157 3.455-4.785-1.884-5.491 5.574 1.804L127.736 0v5.883l4.789 3.373z" fill="#FFAC00"/><path d="M79.138 96.487L38 110.215l-11.148 3.765.55-6.589.784-9.727.629-8.08.47-6.433.943-12.237.078-1.02.707-8.707.55-6.59.784-10.197 9.265 10.276.235.235 9.421 10.512 1.492 1.647 6.28 6.982 4.162 4.628 2.434 2.746 5.966 6.667 7.537 8.394z" fill="#FF458F"/><path d="M36.036 94.448c-1.727 2.745-4.946 3.922-7.93 3.216l.629-8.08.471-6.433c1.57-.078 3.14.236 4.475 1.177 3.612 2.118 4.554 6.668 2.355 10.12zm15.231-29.025c-2.198.941-4.789.863-6.987-.55-3.376-2.117-4.397-6.51-2.434-9.962l9.421 10.512zm20.334 22.671c-1.962 2.667-5.73 3.373-8.636 1.568-2.983-1.882-3.847-5.883-1.962-8.864.55-.863 1.256-1.569 2.12-2.04l2.433 2.746 6.045 6.59z" fill="#FFC800"/><path d="M47.028 82.132a4.473 4.473 0 0 0 4.475-4.472 4.473 4.473 0 0 0-4.475-4.471 4.473 4.473 0 0 0-4.475 4.471 4.473 4.473 0 0 0 4.475 4.472zm-11.62-14.12c-1.099 1.725-3.14 2.431-5.024 1.882l.706-8.707c1.02-.157 2.042.078 2.984.627a4.515 4.515 0 0 1 1.334 6.198zm14.603 28.789a3.14 3.14 0 0 0 3.14-3.138 3.14 3.14 0 0 0-3.14-3.138 3.14 3.14 0 0 0-3.14 3.138 3.14 3.14 0 0 0 3.14 3.138z" fill="#FFA000"/><path opacity=".4" d="M38 110.293l-11.15 3.766.55-6.59 1.414-17.807 1.491-18.67 1.256-16.316.785-10.198L38 110.293z" fill="#fff"/><path d="M79.138 96.487s-1.177 1.02-3.297 2.667c-7.38 5.57-25.83 17.65-44.515 15.611-1.492-.157-2.984-.393-4.475-.785 0 0 23.945-21.729 52.287-17.493z" fill="#AC125B"/><path d="M75.291 97.428c-7.38 5.57-25.83 17.651-44.515 15.611 6.674-5.099 24.024-16.63 44.515-15.61z" fill="#C1C1C1"/><path d="M39.098 36.398l-3.14 4.942 2.355 5.413-5.731-1.412-4.397 3.844-.392-5.805-5.025-3.06 5.417-2.196 1.335-5.726 3.768 4.55 5.81-.55zm53.387 46.126c-2.983 0-2.983 4.628 0 4.628 2.984 0 2.984-4.628 0-4.628z" fill="#C692F1"/><path d="M134.802 44.086c-2.983 0-2.983 4.628 0 4.628s2.983-4.628 0-4.628z" fill="#FFC800"/><path d="M2.277 64.638c-2.983 0-2.983 4.629 0 4.629s2.983-4.629 0-4.629z" fill="#009BCD"/><path d="M78.118 75.228c-2.12 0-2.12 3.295 0 3.295 2.198 0 2.198-3.294 0-3.294z" fill="#FF458F"/><path d="M130.876 59.304c-2.119 0-2.119 3.295 0 3.295 2.199.078 2.199-3.295 0-3.295zM10.992 54.99c-2.12 0-2.12 3.294 0 3.294 2.198.079 2.198-3.294 0-3.294zm55.192 26.592c-1.57 0-1.57 2.432 0 2.432 1.57-.078 1.57-2.431 0-2.431z" fill="#00DFB3"/><path d="M129.306 33.81c-1.57 0-1.57 2.431 0 2.431 1.492 0 1.492-2.431 0-2.431z" fill="#FF458F"/><path d="M6.36 77.895c-1.57 0-1.57 2.432 0 2.432 1.57-.078 1.57-2.431 0-2.431zm103.005 6.904c-2.199 0-2.199 3.451 0 3.451 2.277-.078 2.277-3.451 0-3.451z" fill="#FFC800"/><path d="M70.66 46.753c.235 2.118 0 4.55-1.335 6.197a7.376 7.376 0 0 0-1.414-.941c-.55-.314-1.099-.47-1.648-.628-.471-.078-.864-.157-1.335-.235h-1.335c-.942.078-1.884.392-2.826.627-.393.079-.864.157-1.335.236-1.256.157-2.748-.157-3.533-1.177.315-.314.55-.706.785-1.02 1.257.079 2.434-.392 3.534-1.02.235-.156.549-.313.785-.47.863-.55 1.648-1.098 2.59-1.49.471-.236 1.1-.393 1.65-.55.47-.078.863-.156 1.334-.156h1.727c.785.156 1.649.392 2.355.627z" fill="#00DFB3"/><path d="M68.226 46.204l-.393 5.805c-.55-.314-1.1-.47-1.649-.628l.314-5.255c.628 0 1.178.078 1.728.078zm-3.062.156l-.314 4.864h-1.335c-.942.079-1.884.393-2.826.628l.235-3.452c.864-.549 1.649-1.098 2.591-1.49.471-.235 1.1-.47 1.649-.55z" fill="#37F8CB"/><path d="M73.564 26.828c1.57.942 3.14 2.432 3.612 4.236a4.996 4.996 0 0 0-1.414.47c-.47.236-.942.471-1.334.785-.314.236-.628.47-.864.785l-.706.941c-.472.706-.707 1.49-1.1 2.275-.157.314-.314.706-.55 1.02-.549.941-1.57 1.804-2.668 1.804a5.774 5.774 0 0 0-.315-1.098c.707-.785 1.021-1.883 1.178-2.981 0-.235.079-.55.079-.785.078-.863.078-1.725.314-2.588.078-.471.314-.942.55-1.412a7.17 7.17 0 0 1 .627-1.02l.942-1.177c.471-.47 1.021-.941 1.65-1.255z" fill="#FF458F"/><path d="M71.837 28.162l3.847 3.373c-.471.235-.942.47-1.335.784l-3.454-2.98.942-1.177zm-1.492 2.196l3.22 2.746-.707.941c-.472.706-.707 1.49-1.1 2.275l-2.276-1.961c.078-.863.078-1.726.314-2.589.078-.47.314-.941.55-1.412z" fill="#FF97C8"/><path d="M48.912 31.927c1.1-.706 2.59-1.177 3.847-.863-.078.314-.157.628-.157 1.02s0 .706.079 1.098c.078.314.157.55.235.785.079.235.236.549.393.784.314.55.706.941 1.099 1.412l.47.706c.393.706.629 1.647.315 2.353-.236-.078-.55-.157-.785-.157-.314-.706-.864-1.255-1.492-1.725-.157-.079-.314-.236-.471-.314-.55-.314-1.1-.628-1.57-1.098-.236-.236-.471-.47-.707-.785l-.47-.706-.472-.941c-.236-.628-.314-1.098-.314-1.569z" fill="#C692F1"/><path d="M49.226 33.417l3.376-1.333c0 .392 0 .706.079 1.098l-3.062 1.177c-.157-.314-.314-.628-.393-.942zm.864 1.648l2.826-1.098c.079.235.236.549.393.784.314.55.706.942 1.099 1.412l-2.041.785c-.55-.314-1.1-.628-1.57-1.099-.236-.156-.472-.47-.707-.784z" fill="#E1C0FF"/></g><defs><clipPath id="clip0"><path fill="#fff" d="M0 0h137v115H0z"/></clipPath></defs></svg>