<svg width="18" height="20" fill="none" xmlns="http://www.w3.org/2000/svg"><path d="M1.292 10c.712 0 1.295-.602 1.295-1.347 0 .745.579 1.347 1.291 1.347.717 0 1.296-.602 1.296-1.347 0 .745.579 1.347 1.295 1.347s1.295-.602 1.295-1.347c0 .726.55 1.308 1.236 1.34.686-.032 1.236-.615 1.236-1.34 0 .745.579 1.347 1.295 1.347s1.295-.602 1.295-1.347c0 .745.579 1.347 1.295 1.347.713 0 1.292-.602 1.292-1.347 0 .745.582 1.347 1.295 1.347.894 0 1.184-.517 1.273-.915a.746.746 0 0 0-.197-.687L10.24.556A1.787 1.787 0 0 0 9 0a1.792 1.792 0 0 0-1.24.556L.216 8.398a.746.746 0 0 0-.197.687c.089.398.379.915 1.273.915zm15.138 8.604a2.61 2.61 0 0 1 .45-.185c.003-.142 0-.282-.008-.416a9.273 9.273 0 0 0-1.178-.264c-.375.377-.949.605-1.574.605-1.104 0-2.002-.715-2.002-1.596 0-.878.898-1.593 2.002-1.593.855 0 1.594.433 1.881 1.043.182.026.365.059.547.094a5.504 5.504 0 0 0-.722-1.416 2.437 2.437 0 0 1-.375.027c-1.233 0-2.235-.798-2.235-1.778s1.002-.625 2.235-.625c.753 0 1.116-.318 1.52.136.004-.462 0-.818 0-.818 0-.409.084-.44-.035-.44-.503 0-.969-.142-1.326-.375a2.452 2.452 0 0 1-1.327.376A2.41 2.41 0 0 1 12.959 11a2.428 2.428 0 0 1-1.324.379 2.46 2.46 0 0 1-1.327-.376c-.357.233-.82.376-1.323.376-.5 0-.962-.143-1.327-.379a2.419 2.419 0 0 1-1.324.379c-.5 0-.965-.143-1.327-.376a2.449 2.449 0 0 1-1.323.376 2.42 2.42 0 0 1-1.32-.376 2.472 2.472 0 0 1-1.33.376c-.156 0-.318-.016-.467-.043v8.062H.378c-.21 0-.378.135-.378.301 0 .172.169.301.378.301h13.807c.283-.607 1.01-1.428 1.853-1.428.132 0 .264.01.392.032zm-9.343-.26l-4.366.075v-4.762h4.366v4.687z" fill="#726CA8"/><path d="M12 20h5v-8h-5v8z" fill="#726CA8"/></svg>