<svg width="18" height="16" fill="none" xmlns="http://www.w3.org/2000/svg"><path d="M12.347 7.655c-.076-.29-.114-.662-.114-1.14l-.028.017c0 .47-.037.835-.11 1.12-1.813.043-3.27 1.515-3.27 3.327 0 1.838 1.5 3.327 3.35 3.327s3.351-1.49 3.351-3.327c0-1.781-1.408-3.235-3.18-3.324zm2.143 4.172a2.923 2.923 0 0 0-3.438-3.065 2.44 2.44 0 0 1 1.196-.31 2.43 2.43 0 0 1 2.439 2.421c0 .339-.07.662-.197.954z" fill="#726CA8"/><path d="M16.7 5.653a3.077 3.077 0 0 0-1.98-3.605A3.095 3.095 0 0 0 11.802 0c-.793 0-1.517.297-2.064.784A3.097 3.097 0 0 0 7.673 0C6.613 0 5.676.53 5.12 1.338c-1.69.022-3.055 1.39-3.055 3.073 0 .133.01.263.026.39A3.077 3.077 0 0 0 0 7.71c0 .945.43 1.79 1.106 2.355a3.051 3.051 0 0 0-.837 2.101c0 1.698 1.386 3.075 3.096 3.075.6 0 1.161-.17 1.636-.465a1.503 1.503 0 0 0 1.19-1.466 1.5 1.5 0 0 0-1-1.41 1.49 1.49 0 0 0-.261-1.799 1.49 1.49 0 0 0 .378-1.532 1.498 1.498 0 0 0 .716-1.789 1.49 1.49 0 0 0 .525-1.135l-.001-.03a1.51 1.51 0 0 0 1.406-.591 1.51 1.51 0 0 0 1.92-.493 1.511 1.511 0 0 0 2.006.317 1.51 1.51 0 0 0 1.326.782l.025-.002a1.5 1.5 0 0 0 .99 1.248 1.486 1.486 0 0 0-.171.962 3.328 3.328 0 0 1 2.008 3.256c.563-.165.99-.648 1.068-1.24a3.058 3.058 0 0 0-.426-4.2z" fill="#726CA8"/><path d="M7.925 6.693c0 2.066.703 2.088 2.109 2.088-1.406 0-2.11.298-2.11 2.088h-.027c0-1.79-.704-2.088-2.11-2.088 1.407 0 2.11-.039 2.11-2.106" fill="#726CA8"/></svg>