<svg width="18" height="21" fill="none" xmlns="http://www.w3.org/2000/svg"><path fill-rule="evenodd" clip-rule="evenodd" d="M.299 5.49c-.531 1.252-.266 4.513.113 5.764.152.493.835 1.82 1.1 2.276.986 1.706 1.972 1.744 2.92 2.123.53.228.341.341 1.024.569 1.365.493 1.365.303 2.806.38.493 1.592 0 1.364 1.744.985-.151-.872-1.213-1.175-.265-2.351 1.782-2.275 1.858-4.854 1.251-7.622-.455-2.086-1.44-3.11-2.616-4.096-1.024-.758-2.73-2.123-4.778-1.403C1.74 2.722.98 3.745.298 5.49zm5.498-1.44c-.341-.228-.455-.266-.834-.418-.569-.227-.455-.038-.607-.569.569-.341 1.403.228 1.858.531 1.062.72 3.603 2.54 3.337 3.982-.455-.19-.151.152-.644-.759-.531-.986-2.086-2.199-3.11-2.768zm3.982 6.56c0-1.1-.341-1.48-.19-1.972.342.076.342.038.455.379.228.645.304 1.706.114 2.275-.493-.19-.38.228-.38-.682z" fill="#726CA8"/><path fill-rule="evenodd" clip-rule="evenodd" d="M9.74 4.05c1.366 1.743 2.01 3.526 2.01 5.915.039 2.427-.265 1.327.57 2.048l-.076 1.175c.796 0 .758.152.682-.607-.038-.493-.19-.72.342-.796.91-.114 1.516.114 2.275-.341 2.579-1.555 2.54-5.271 1.896-7.85-.759-3.034-5.006-5.536-7.395-1.479-.341.607-.72 1.441-.303 1.934zm6.978 3.83c-.113-.38.038-1.252-.227-2.049.076 0 .152-.113.341-.227.152.303.228.72.266 1.175.113.721.19.91-.38 1.1zm-3.83-6.865c-.038 0-.038.038-.075.076.037-.038.037-.076.075-.076zm.152.19c-.076-.038-.152-.114-.114-.152 0 0 0-.076-.038-.038.493-.379.455-.19 1.214.152 1.327.569 1.327.72 1.972 2.2.227.493.606.872.227 1.327-.606-.38-.758-1.745-1.251-2.313-.569-.607-.986-.683-1.707-.986-.113-.076-.19-.076-.303-.19z" fill="#726CA8"/><path d="M9.551 18.004s-.113.455.304.948c.151.19.341.266.493.38.265.151.455.265.568.72.19.72.114.948.114.948h-.19s.039-.19-.113-.872c-.076-.38-.266-.493-.493-.607a1.574 1.574 0 0 1-.531-.417c-.455-.531-.341-1.1-.341-1.1h.19zm3.072-4.474s-.228.568-.228.91c0 .114.076.227.152.303.152.152.303.341.266.72-.038.645-.304.797-.304.797l-.114-.152s.19-.114.228-.682c0-.304-.114-.455-.228-.607a.749.749 0 0 1-.227-.417c-.038-.38.227-1.024.227-1.024l.228.152z" fill="#726CA8"/></svg>