<svg width="22" height="24" fill="none" xmlns="http://www.w3.org/2000/svg"><path d="M3.56 10.75c0 .927.756 1.684 1.683 1.684a1.685 1.685 0 0 0 0-3.37c-.927 0-1.683.757-1.683 1.687zm12.62 1.742a1.75 1.75 0 0 0 1.747-1.752 1.75 1.75 0 1 0-1.748 1.752z" fill="#726CA8"/><path d="M20.858 10.902a1.022 1.022 0 0 0-1.215.743l-.476 1.64-.684-.263a3.343 3.343 0 0 0-1.2-.224H14.79a.554.554 0 0 1-.429-.202l-.731-.886a.069.069 0 0 1-.018-.037l-.57-2.058a1.033 1.033 0 0 0-1.204-.735 1.03 1.03 0 0 0-.782 1.261l.526 2.066c.083.324.242.63.458.883l1.73 2.022v3.025l-1.038 3.64a1.204 1.204 0 0 0 1.16 1.532c.534 0 1-.339 1.15-.847l1.09-3.522.475.588c.238.292.325.674.234 1.042l-.302 1.254a1.201 1.201 0 0 0 1.171 1.485h.065c.57 0 1.063-.404 1.179-.959l.245-1.19c.44-2.113-.88-3.445-1.006-3.712V15.26l.566.195c.45.155.934.122 1.359-.098.425-.22.732-.59.869-1.052l.627-2.138a1.02 1.02 0 0 0-.757-1.265zM3.775 3.38L3.12 5.192a.36.36 0 0 0 .678.246l.735-2.028a.36.36 0 0 0-.085-.377l-.735-.735a.36.36 0 1 0-.51.51l.573.572zm4.218-.467a.36.36 0 0 0 .36-.36v-1.23a.36.36 0 1 0-.72 0v1.23c0 .199.16.36.36.36zm4.197.377a.36.36 0 0 0-.146-.488l-.751-.407.42-.923a.36.36 0 0 0-.657-.298l-.558 1.23a.36.36 0 0 0 .157.465l1.047.567a.36.36 0 0 0 .488-.145zm3.635 4.223l1.047-.567a.36.36 0 0 0 .157-.466l-.559-1.23a.36.36 0 0 0-.656.299l.42.923-.752.407a.36.36 0 1 0 .343.634zm.593-4.043a.36.36 0 0 0 .357-.41l-.16-1.162a.36.36 0 0 0-.714.099l.16 1.162a.36.36 0 0 0 .357.311zm-3.784 2.356c.17.11.392.06.5-.103l.697-1.06a.36.36 0 0 0-.602-.397l-.698 1.06a.36.36 0 0 0 .103.5zM.872 5.997a.36.36 0 0 0-.102.5l.697 1.06a.36.36 0 1 0 .602-.396L1.372 6.1a.36.36 0 0 0-.5-.103zM21.838 2.52a.36.36 0 0 0-.5.104l-.697 1.06a.36.36 0 0 0 .602.397l.698-1.06a.36.36 0 0 0-.103-.5zm-2.642-.386a.36.36 0 1 0 .529-.49l-.523-.566a.36.36 0 0 0-.53.49l.524.566zM8.414 4.709l.523.567a.36.36 0 1 0 .53-.49l-.524-.566a.36.36 0 0 0-.53.489zM5.77 6.826l.523-.567a.36.36 0 1 0-.53-.489l-.523.567a.36.36 0 1 0 .53.489zm12.909-.983l.523-.567a.36.36 0 0 0-.53-.489l-.523.567a.36.36 0 0 0 .53.489zM.415 2.882a.36.36 0 0 0 .43-.274l.261-1.182a.36.36 0 0 0-.704-.156L.141 2.452a.36.36 0 0 0 .274.43zm9.521 5.955a.975.975 0 0 0-1.366.598l-.48 1.61-.032.059-1.16 1.366a.442.442 0 0 1-.332.151H3.797a.425.425 0 0 1-.331-.151l-1.157-1.363a47.44 47.44 0 0 1-.043-.078l-.343-1.15a.982.982 0 1 0-1.878.569L.47 11.82c.058.195.163.382.307.544l2.289 2.527v7.636c0 .468.379.847.847.847h.123c.468 0 .847-.38.847-.847v-2.855a.36.36 0 1 1 .72 0v2.855a.847.847 0 1 0 1.694 0v-7.636l2.29-2.527c.14-.155.244-.338.302-.544l.555-1.824a.972.972 0 0 0-.508-1.16z" fill="#726CA8"/></svg>