<svg width="16" height="16" fill="none" xmlns="http://www.w3.org/2000/svg"><path d="M14.5 5.648h-1.147l-.674-1.737a1.02 1.02 0 0 0-.961-.657H8.21c-.422 0-.81.27-.961.657l-.675 1.737H4.282V5.26a.569.569 0 0 0-.573-.573h-1.5a.569.569 0 0 0-.574.573v.388H.877A.87.87 0 0 0 0 6.525v8.598A.87.87 0 0 0 .877 16h13.64a.87.87 0 0 0 .876-.877V6.525a.896.896 0 0 0-.894-.877zM9.02 4.367h1.905c.236 0 .438.202.438.438a.446.446 0 0 1-.438.438H9.02a.446.446 0 0 1-.438-.438c0-.253.185-.438.438-.438zm-5.109 3.81H2.006a.446.446 0 0 1-.438-.438c0-.236.202-.439.438-.439h1.905c.237 0 .439.203.439.439a.446.446 0 0 1-.439.438zm5.868 6.204a3.54 3.54 0 1 1-.001-7.08 3.54 3.54 0 0 1 0 7.08z" fill="#726CA8"/><path d="M9.779 8.177a2.67 2.67 0 0 0-2.664 2.664 2.67 2.67 0 0 0 2.664 2.664 2.67 2.67 0 0 0 2.664-2.664 2.67 2.67 0 0 0-2.664-2.664zm0 1.686a.96.96 0 0 0-.961.96.446.446 0 0 1-.439.44.446.446 0 0 1-.438-.44A1.85 1.85 0 0 1 9.796 8.97c.236 0 .438.202.438.439-.017.27-.22.455-.455.455zm0-7.469a.446.446 0 0 0 .438-.438V.438A.446.446 0 0 0 9.779 0a.446.446 0 0 0-.439.438v1.5a.45.45 0 0 0 .439.456zM7.79 2.209a.435.435 0 0 0 .42.286.484.484 0 0 0 .152-.034.444.444 0 0 0 .27-.573L8.11.472a.444.444 0 0 0-.574-.27.444.444 0 0 0-.27.573L7.79 2.21zm3.405.269c.05.017.101.034.152.034a.46.46 0 0 0 .421-.287L12.291.81a.444.444 0 0 0-.27-.573.444.444 0 0 0-.573.27l-.523 1.416a.46.46 0 0 0 .27.556z" fill="#726CA8"/></svg>