<svg width="18" height="18" fill="none" xmlns="http://www.w3.org/2000/svg"><g clip-path="url(#clip0)" fill="#726CA8"><path d="M13.12 12.64c-.957 1.405-2.073 2.796-3.082 3.838-.353.365-.685.68-.991.94 3.011-.057 5.84-1.7 4.283-4.447-.069-.113-.14-.223-.21-.33zm-6.71 1.415a1.257 1.257 0 0 1 1.523-1.228 32.36 32.36 0 0 1 1.652-2.74c.468-.696.901-1.279 1.305-1.757-.069-.702-.019-1.538.199-2.586C12.189.454 3.183-3.25.543 5.297c-1.634 5.28.503 9.238 5.279 11.5.163.077.332.145.506.207.044-.503.23-1.16.555-1.967a1.254 1.254 0 0 1-.473-.982zm-4.262-6.12a1.257 1.257 0 1 1 2.514 0 1.257 1.257 0 0 1-2.514 0zm2.326 4.863a1.257 1.257 0 1 1 0-2.513 1.257 1.257 0 0 1 0 2.513zm1.038-9.2a1.602 1.602 0 1 1 3.203 0 1.602 1.602 0 0 1-3.203 0z"/><path d="M13.295 8.294a2.557 2.557 0 0 1-.764-.754c-.628.431-1.425 1.307-2.473 2.865-2.145 3.188-3.73 6.836-2.986 7.323a.361.361 0 0 0 .202.054c.959 0 3.494-2.664 5.477-5.612 1.088-1.618 1.595-2.703 1.733-3.444a3.257 3.257 0 0 1-.671-.174 2.682 2.682 0 0 1-.518-.258zm4.695-5.148a.401.401 0 0 0-.406-.315c-1.553.058-2.793.36-3.688.898-1.017.611-1.33 1.366-1.414 1.89-.064.403-.012.804.136 1.169.244.605.75 1.111 1.418 1.358.35.13.667.192.966.192a2.04 2.04 0 0 0 1.1-.325c.896-.569.821-1.503.755-2.328-.083-1.026-.084-1.676.896-2.082a.401.401 0 0 0 .238-.457z"/></g><defs><clipPath id="clip0"><path fill="#fff" d="M0 0h18v18H0z"/></clipPath></defs></svg>