<svg width="21" height="23" fill="none" xmlns="http://www.w3.org/2000/svg"><path d="M6.178 18.904l.35 1.658h2.745l-.331-1.658H6.178zm2.898-4.964l.772 3.86h2.41l.771-3.86a3.86 3.86 0 0 1-3.953 0zm.996-10.607a17.349 17.349 0 0 0 .383.417c.175.185.355.37.537.555.326-.329.648-.66.941-.99.377-.424.708-.845.945-1.254.26-.447.385-.84.385-1.201a.86.86 0 0 0-.86-.86c-.379 0-.59.105-.918.754a.552.552 0 0 1-.493.303h-.003c-.21 0-.4-.12-.493-.307-.32-.646-.53-.75-.91-.75a.86.86 0 0 0-.859.86c0 .371.134.778.41 1.243.237.401.564.814.935 1.23zm1.633 17.229l.331-1.658H10.07l.331 1.658h1.305zm8.742-16.579a.553.553 0 1 0 .002 1.107.553.553 0 0 0-.002-1.107zm-6.079 14.922h-1.204l-.332 1.657h2.746l1.282-6.089c-.018.002-.037.002-.055.003l-.049.003a3.858 3.858 0 0 1-2.546-.806l-.825 4.126h.983a.553.553 0 0 1 0 1.106zM1.105 2.878a1.106 1.106 0 0 0 0 2.211 1.107 1.107 0 0 0 0-2.21zm11.056 18.79H6.632c-1.143 0-2.248.4-3.124 1.105h15.09a4.998 4.998 0 0 0-3.124-1.105H12.16z" fill="#726CA8"/><path d="M16.579 7.852c-.162 0-.327.015-.492.044a.553.553 0 0 1-.646-.61 4.41 4.41 0 0 0-1.908-4.2l-.035.047a11.706 11.706 0 0 1-.127.174l-.044.058a9.447 9.447 0 0 1-.1.128l-.032.04a11.7 11.7 0 0 1-.137.169l-.031.037-.11.13-.053.06-.095.109-.057.064-.096.105-.057.063-.106.114-.048.051c-.05.055-.102.109-.154.163l-.036.037a24.395 24.395 0 0 1-.284.292l-.07.07-.094.096a18.061 18.061 0 0 1-.23.232l-.155.154a.553.553 0 0 1-.39.162h-.001a.553.553 0 0 1-.391-.163l-.017-.017-.22-.221-.084-.085a32.846 32.846 0 0 1-.325-.331l-.06-.061-.135-.14-.026-.028-.142-.15-.051-.055a19.354 19.354 0 0 1-.099-.107l-.057-.062a15.436 15.436 0 0 1-.242-.272l-.05-.056-.129-.152-.009-.01-.133-.163-.04-.052a9.95 9.95 0 0 1-.26-.34l-.026-.037a4.425 4.425 0 0 0-1.83 4.147.553.553 0 0 1-.647.61 2.766 2.766 0 0 0-3.255 2.719c0 1.284.881 2.367 2.07 2.675l.009.002c.039.01.078.02.118.027l.017.004c.084.017.17.03.256.04l.032.002.097.008.036.002a2.76 2.76 0 0 0 2.43-1.233.553.553 0 0 1 .922 0 2.76 2.76 0 0 0 2.303 1.236 2.76 2.76 0 0 0 2.302-1.236.553.553 0 0 1 .921 0 2.76 2.76 0 0 0 2.43 1.233l.037-.002.097-.008c.011 0 .022-.002.032-.003a2.73 2.73 0 0 0 .256-.039l.017-.004c.04-.008.08-.017.118-.027l.009-.002a2.768 2.768 0 0 0 2.07-2.675 2.766 2.766 0 0 0-2.763-2.763zM4.974 11.168a.553.553 0 1 1 0-1.106.553.553 0 0 1 0 1.106zm2.763-1.106a.553.553 0 1 1 0-1.105.553.553 0 0 1 0 1.105zm1.658-2.21a.553.553 0 1 1 0-1.105.553.553 0 0 1 0 1.105zm1.105 4.42a.553.553 0 1 1 0-1.105.553.553 0 0 1 0 1.106zm1.105-2.762a.553.553 0 1 1 0-1.106.553.553 0 0 1 0 1.106zm1.658-2.21a.553.553 0 1 1 0-1.106.553.553 0 0 1 0 1.105zm3.316 4.42a.553.553 0 1 1 0-1.105.553.553 0 0 1 0 1.105zM5.526 14.483c-.059 0-.118-.001-.177-.004l-.05-.003-.054-.003.7 3.326h2.776l-.826-4.126a3.858 3.858 0 0 1-2.369.81z" fill="#726CA8"/></svg>