<svg width="1684" height="314" fill="none" xmlns="http://www.w3.org/2000/svg"><ellipse cx="86.443" cy="254" rx="59.443" ry="60" fill="#C1DDEB"/><ellipse cx="1664.14" cy="139.001" rx="19.814" ry="20" fill="#4185C6"/><path d="M1550.63 199.001c0 29.061-23.32 52.5-51.94 52.5-28.62 0-51.94-23.439-51.94-52.5s23.32-52.5 51.94-52.5c28.62 0 51.94 23.439 51.94 52.5z" fill="#fff" stroke="#7BCBBE" stroke-width="15"/><ellipse cx="224.623" cy="39.001" rx="19.814" ry="20" fill="#E3A5B4"/><path d="M112.106 60c0 29.061-23.321 52.5-51.943 52.5C31.54 112.5 8.22 89.061 8.22 60c0-29.06 23.321-52.5 51.943-52.5 28.622 0 51.943 23.44 51.943 52.5z" fill="#fff" stroke="#F1932F" stroke-width="15"/></svg>