<svg width="1920" height="838" fill="none" xmlns="http://www.w3.org/2000/svg"><path d="M-6 0s412.749 45.823 963.417 45.823C1508.08 45.823 1933.97 0 1933.97 0v838S1505 787.5 957.417 787.5-6 838-6 838V0z" fill="#F1A645"/><path d="M-6 0s412.749 45.823 963.417 45.823C1508.08 45.823 1933.97 0 1933.97 0v838S1505 787.5 957.417 787.5-6 838-6 838V0z" fill="#FFA19F"/><path d="M-6 0s412.749 45.823 963.417 45.823C1508.08 45.823 1933.97 0 1933.97 0v838S1505 787.5 957.417 787.5-6 838-6 838V0z" fill="url(#paint0_linear)"/><defs><linearGradient id="paint0_linear" x1="963.984" y1="0" x2="963.984" y2="838" gradientUnits="userSpaceOnUse"><stop stop-color="#99D4F5"/><stop offset="1" stop-color="#C7E0ED"/></linearGradient></defs></svg>