<svg width="50" height="42" fill="none" xmlns="http://www.w3.org/2000/svg"><path d="M48.611 2.252c-3.743 0-5.565-.521-7.493-1.073C39.092.599 36.998 0 32.87 0c-4.127 0-6.222.6-8.248 1.179-1.93.552-3.75 1.073-7.494 1.073-3.742 0-5.564-.521-7.492-1.073C7.611.599 5.516 0 1.39 0 .622 0 0 .63 0 1.408v36.599c0 .777.622 1.407 1.389 1.407 3.743 0 5.565.522 7.493 1.074 2.026.58 4.12 1.179 8.248 1.179 4.127 0 6.222-.6 8.248-1.18 1.93-.551 3.75-1.073 7.494-1.073 3.742 0 5.564.522 7.492 1.074 2.025.58 4.12 1.179 8.247 1.179.767 0 1.389-.63 1.389-1.408v-36.6c0-.777-.622-1.407-1.389-1.407zm-1.389 36.574c-2.837-.113-4.43-.569-6.103-1.047-2.026-.58-4.12-1.18-8.247-1.18-4.128 0-6.222.6-8.248 1.18-1.929.551-3.75 1.073-7.493 1.073-3.743 0-5.565-.521-7.494-1.073-1.785-.511-3.623-1.037-6.86-1.155v-1.547c2.933.112 4.572.58 6.294 1.073 1.98.567 4.028 1.153 8.06 1.153 4.031 0 6.079-.586 8.059-1.153 1.976-.565 3.843-1.1 7.682-1.1 3.839 0 5.705.535 7.68 1.1 1.74.498 3.53 1.01 6.67 1.128v1.547zm0-2.957c-2.931-.112-4.57-.58-6.292-1.073-1.98-.567-4.028-1.153-8.058-1.153-4.032 0-6.08.586-8.06 1.153-1.976.565-3.843 1.1-7.682 1.1-3.839 0-5.706-.535-7.682-1.1-1.739-.498-3.53-1.01-6.67-1.128v-1.547c2.932.112 4.571.58 6.293 1.073 1.98.567 4.028 1.153 8.06 1.153 4.031 0 6.079-.586 8.059-1.153 1.976-.565 3.843-1.1 7.682-1.1 3.839 0 5.705.535 7.68 1.1 1.74.498 3.53 1.01 6.67 1.127v1.548zm0-2.956c-2.931-.112-4.57-.58-6.292-1.073-1.98-.567-4.027-1.153-8.058-1.153-4.032 0-6.08.586-8.06 1.152-1.976.566-3.843 1.1-7.682 1.1-3.839 0-5.706-.534-7.682-1.1-1.739-.497-3.53-1.009-6.67-1.127v-1.266c2.932.113 4.571.581 6.293 1.074 1.98.566 4.028 1.152 8.06 1.152 4.031 0 6.079-.586 8.059-1.152 1.976-.566 3.843-1.1 7.682-1.1 3.839 0 5.705.534 7.68 1.1 1.74.497 3.53 1.01 6.67 1.127v1.266zm0-2.674c-2.931-.113-4.57-.581-6.292-1.074-1.98-.566-4.028-1.153-8.058-1.153-4.032 0-6.08.587-8.06 1.153-1.976.565-3.843 1.1-7.682 1.1-3.839 0-5.706-.535-7.682-1.1-1.739-.498-3.53-1.01-6.67-1.127V2.84c2.837.113 4.43.568 6.103 1.047 2.026.58 4.12 1.179 8.247 1.179 4.128 0 6.222-.6 8.248-1.18 1.929-.55 3.75-1.072 7.493-1.072 3.743 0 5.565.521 7.494 1.073 1.785.51 3.623 1.037 6.86 1.155v25.196z" fill="#F1A645"/><path d="M20.45 26.095c-3.619-1.787-5.867-5.42-5.867-9.485 0-2.848 1.106-5.52 3.114-7.522.2-.2.221-.504.115-.768-.107-.264-.402-.436-.684-.436-4.511 0-6.897-.683-9.001-1.285-.582-.167-1.131-.325-1.72-.463a.693.693 0 0 0-.589.134.706.706 0 0 0-.262.551v18.134a.7.7 0 0 0 .595.696c1.733.253 3.008.618 4.24.972 1.889.54 3.38.967 6.739.967 1.177 0 2.19-.053 3.097-.163a.707.707 0 0 0 .222-1.332zm-3.32.088c-3.166 0-4.576-.404-6.361-.915-1.081-.309-2.29-.655-3.825-.916V7.725c.265.073.531.15.804.228 1.955.56 4.144 1.185 7.933 1.313a11.963 11.963 0 0 0-2.487 7.344c0 3.835 1.765 7.332 4.721 9.564-.253.006-.514.009-.785.009zM32.87 5.63c-1.177 0-2.19.054-3.097.164a.707.707 0 0 0-.222 1.332c3.618 1.786 5.866 5.42 5.866 9.484a10.55 10.55 0 0 1-3.114 7.523c-.2.2-.221.504-.115.768.107.264.402.436.684.436 4.511 0 6.897.682 9.001 1.285.582.167 1.132.324 1.72.463a.688.688 0 0 0 .589-.135.706.706 0 0 0 .262-.55V8.265a.7.7 0 0 0-.595-.696c-1.733-.254-3.008-.619-4.24-.972-1.889-.54-3.38-.968-6.739-.968zm10.186 19.865c-.265-.072-.531-.149-.805-.227-1.955-.56-4.143-1.186-7.933-1.314a11.96 11.96 0 0 0 2.488-7.344c0-3.834-1.765-7.331-4.721-9.563.253-.006.514-.009.785-.009 3.166 0 4.576.404 6.361.914 1.081.31 2.29.656 3.825.917v16.626z" fill="#F1A645"/><path d="M25.798 9.29h-4.27a.7.7 0 0 0-.695.705v9.15h-.694a.7.7 0 0 0-.694.703.7.7 0 0 0 .694.704h.694v2.111a.7.7 0 0 0 .695.704.7.7 0 0 0 .694-.704v-2.111h4.861a.7.7 0 0 0 .695-.704.7.7 0 0 0-.695-.704h-4.86v-1.522h3.575c2.267 0 4.11-1.868 4.11-4.165 0-2.297-1.844-4.166-4.11-4.166zm0 6.925h-3.576v-5.517h3.576c1.5 0 2.722 1.237 2.722 2.758s-1.222 2.759-2.722 2.759z" fill="#F1A645"/></svg>