<svg width="49" height="59" fill="none" xmlns="http://www.w3.org/2000/svg"><path d="M48.04 44.758c-.14-.303-.262-.644-.392-1.006-.453-1.263-1.14-3.173-3.053-2.535a1.678 1.678 0 0 0-1.044.966c-.403.96-.018 2.332.362 3.292-2.78-.267-4.525.007-5.192.815-.296.358-.387.81-.267 1.287-.345.134-.65.329-.852.602-.306.413-.336.93-.083 1.417.08.153.18.286.298.404-.116.097-.22.207-.3.336-.25.396-.26.87-.026 1.332.224.442.622.725 1.12.899-.023.543.164.93.357 1.176.624.8 1.9.947 2.922.947.365 0 .697-.019.955-.033l.052-.003c1.221-.069 4.081-.229 5.302-2.295 1.48-2.504.596-5.956-.16-7.601zm-1.037 6.894c-.843 1.427-3.184 1.558-4.184 1.614l-.052.003c-1.53.087-2.44-.042-2.705-.382a.294.294 0 0 1-.046-.092c.094.003.189.005.284.005.794 0 1.633-.105 2.364-.222.071-.011.125-.02.16-.024a.694.694 0 1 0-.184-1.377 9.08 9.08 0 0 0-.193.03c-3.285.521-3.692-.122-3.715-.165.17-.122.722-.298 1.541-.28.073.002.146.003.22.003.762 0 1.557-.09 2.256-.19l.161-.022a.695.695 0 1 0-.163-1.38 9.468 9.468 0 0 0-.196.027c-3.204.459-3.724-.124-3.792-.233.192-.148.856-.32 1.462-.208.014.002.027.001.04.003.64.111 1.437.162 2.385.187.175.004.314.007.402.013a.695.695 0 1 0 .092-1.386c-.1-.007-.259-.011-.458-.016-1.05-.027-1.734-.087-2.182-.16l-.028-.008a3.245 3.245 0 0 0-.14-.021c-.29-.056-.454-.118-.542-.175l-.003-.015c.139-.243 1.54-.64 4.804-.234a.895.895 0 0 0 .837-.37.913.913 0 0 0 .08-.931c-.603-1.234-.88-2.437-.675-2.925a.295.295 0 0 1 .202-.187c.478-.158.72.053 1.306 1.688.134.373.273.759.437 1.116.598 1.303 1.415 4.3.225 6.314zm-35.52-1.317a1.44 1.44 0 0 0-.3-.335c.117-.118.219-.251.298-.404.253-.487.223-1.004-.083-1.417-.203-.274-.507-.47-.852-.603.12-.476.028-.929-.267-1.286-.667-.807-2.412-1.08-5.192-.815.38-.96.765-2.333.362-3.292a1.677 1.677 0 0 0-1.044-.966c-1.913-.639-2.6 1.272-3.053 2.535-.13.362-.253.703-.392 1.005-.755 1.645-1.639 5.097-.16 7.601 1.222 2.067 4.082 2.227 5.303 2.295l.051.003c.26.015.591.033.956.033 1.021 0 2.297-.147 2.922-.947.193-.247.38-.632.357-1.176.498-.174.896-.457 1.12-.899.233-.462.225-.935-.026-1.332zm-2.545 2.552c-.266.34-1.176.468-2.705.382l-.052-.003c-1-.056-3.341-.187-4.185-1.614-1.19-2.014-.372-5.011.227-6.314.163-.357.302-.743.436-1.117.586-1.633.829-1.845 1.306-1.686.105.035.16.085.203.186.205.488-.073 1.69-.675 2.925a.913.913 0 0 0 .08.932.897.897 0 0 0 .837.37c3.263-.408 4.665-.01 4.8.225a.1.1 0 0 1 0 .023c-.088.057-.252.118-.54.174a3.243 3.243 0 0 0-.142.022L8.5 47.4c-.448.072-1.133.133-2.182.16a15.3 15.3 0 0 0-.458.016.695.695 0 0 0 .093 1.386c.087-.006.226-.01.401-.014.948-.024 1.745-.075 2.384-.186.014-.002.027-.001.041-.004.607-.112 1.27.06 1.463.208-.068.11-.59.693-3.793.233a9.567 9.567 0 0 0-.196-.026.694.694 0 1 0-.163 1.38c.035.004.09.011.162.022.698.1 1.493.19 2.255.19.076 0 .152-.002.228-.004.814-.018 1.363.159 1.533.28-.023.043-.429.686-3.715.165a9.611 9.611 0 0 0-.193-.03.693.693 0 1 0-.184 1.377l.16.025c.731.116 1.57.221 2.364.221.095 0 .19-.002.284-.005a.298.298 0 0 1-.046.093z" fill="#F1A645"/><path d="M24.486 2.39c3.533 0 7.064 1.187 9.943 3.343 2.85 2.135 4.935 5.117 5.873 8.398l.312 1.093 1.134-.09a2.56 2.56 0 0 1 .173-.01c1.216 0 2.243.976 2.243 2.13 0 1.103-.986 2.076-2.153 2.123l-1.138.047-.177 1.125c-.582 3.689-2.556 7.102-5.557 9.61-3.012 2.518-6.795 3.905-10.653 3.905-3.857 0-7.64-1.386-10.652-3.904-3.002-2.51-4.975-5.922-5.557-9.61l-.178-1.126-1.137-.047c-1.168-.047-2.154-1.02-2.154-2.123 0-1.154 1.027-2.13 2.243-2.13.045 0 .11.006.174.01l1.133.09.313-1.093c.937-3.28 3.023-6.263 5.872-8.398 2.879-2.156 6.41-3.344 9.943-3.344zm0-1.39C16.52 1 9.433 6.407 7.334 13.75a3.552 3.552 0 0 0-.283-.015c-1.943 0-3.632 1.576-3.632 3.52 0 1.893 1.605 3.433 3.485 3.51 1.311 8.31 8.93 14.688 17.582 14.688 8.651 0 16.27-6.378 17.582-14.688 1.88-.077 3.485-1.617 3.485-3.51 0-1.944-1.689-3.52-3.632-3.52a3.7 3.7 0 0 0-.284.015C39.54 6.407 32.451 1 24.486 1z" fill="#F1A645" stroke="#F1A645"/><path d="M20.599 12.254a.695.695 0 0 1-.671-.875 66.55 66.55 0 0 1 1.541-4.945.695.695 0 0 1 1.31.465 65.162 65.162 0 0 0-1.51 4.841.695.695 0 0 1-.67.514zm3.701-.556a.695.695 0 0 1-.694-.695v-3.89a.695.695 0 1 1 1.39 0v3.89a.696.696 0 0 1-.695.695zm4.164-.091a.695.695 0 0 1-.643-.43l-1.61-3.914a.695.695 0 0 1 1.285-.53l1.61 3.914a.695.695 0 0 1-.642.96z" fill="#F1A645"/><path d="M21.51 18.913a1.25 1.25 0 1 0-.001-2.501 1.25 1.25 0 0 0 0 2.5zm5.995 0a1.25 1.25 0 1 0 0-2.501 1.25 1.25 0 0 0 0 2.5z" fill="#F1A645" stroke="#F1A645"/><path d="M14.95 25.488a.695.695 0 0 1-.083-1.384 2.157 2.157 0 0 0 1.882-2.397.695.695 0 1 1 1.379-.166 3.548 3.548 0 0 1-3.094 3.942.728.728 0 0 1-.085.005zm19.073 0a.644.644 0 0 1-.084-.005 3.548 3.548 0 0 1-3.095-3.942.695.695 0 0 1 1.38.166 2.157 2.157 0 0 0 1.881 2.397.695.695 0 0 1-.082 1.384z" fill="#F1A645"/><path d="M24.486 27.257c-2.855 0-5.638-1-7.836-2.814a.695.695 0 1 1 .885-1.071 10.944 10.944 0 0 0 6.951 2.495c2.544 0 5.021-.893 6.975-2.515a.695.695 0 0 1 .888 1.07 12.336 12.336 0 0 1-7.863 2.835z" fill="#F1A645"/><path d="M44.909 46.54l.052-6.394a3.473 3.473 0 0 0-2.407-3.34c-2.143-.7-5.489-1.543-9.26-1.592-4.87-.06-7.723 2.014-8.808 3.006-1.085-.992-3.933-3.066-8.808-3.006-3.771.049-7.117.893-9.26 1.593a3.473 3.473 0 0 0-2.407 3.34l.052 6.392h1.39L5.4 40.135a2.089 2.089 0 0 1 1.45-2.008c2.05-.67 5.25-1.477 8.847-1.524 4.497-.059 7.047 1.88 7.933 2.717a.516.516 0 0 1 .161.38v15.197c0 .173-.08.33-.219.43a.52.52 0 0 1-.475.07c-2.319-.78-5.65-1.643-8.355-1.325-2.807.33-6.548 1.452-8.529 2.091a.524.524 0 0 1-.686-.498l-.017-2.087H4.12l.018 2.099c.005.617.295 1.178.795 1.54a1.897 1.897 0 0 0 1.707.269c1.932-.624 5.575-1.717 8.265-2.034 2.577-.302 5.96.66 7.749 1.262.582.196 1.23.1 1.729-.26.036-.026.069-.055.103-.084.034.029.067.058.103.084a1.92 1.92 0 0 0 1.73.26c1.787-.602 5.17-1.565 7.749-1.262 2.69.317 6.332 1.41 8.264 2.034a1.895 1.895 0 0 0 1.707-.27c.5-.36.79-.922.795-1.54l.017-2.098h-1.389l-.017 2.087a.523.523 0 0 1-.686.499c-1.98-.64-5.721-1.761-8.529-2.092a10.491 10.491 0 0 0-1.22-.068c-2.437 0-5.155.727-7.134 1.393a.521.521 0 0 1-.476-.07.522.522 0 0 1-.22-.43V39.7c0-.148.058-.282.162-.38.886-.837 3.437-2.78 7.934-2.717 3.596.047 6.796.855 8.847 1.524a2.09 2.09 0 0 1 1.45 2.008l-.053 6.404h1.389z" fill="#F1A645" stroke="#F1A645"/></svg>