<svg width="20" height="20" fill="none" xmlns="http://www.w3.org/2000/svg"><path d="M5.458 1.508a.759.759 0 0 0 1.026-.316C6.68.82 6.45.475 6.168.166A.507.507 0 0 0 5.78 0a.87.87 0 0 0-.718.441.84.84 0 0 0 .395 1.067zm2.509 4.018c.663 0 .976-.576 1.2-1.199.25-.702-.537-1.336-1.2-1.336-.662 0-1.199.674-1.199 1.336a1.2 1.2 0 0 0 1.2 1.199zm5.26-1.634a2.015 2.015 0 0 0 1.8-.99c.1-.204.157-.426.169-.654C15.324.612 14.442 0 13.438 0c-.326.003-.649.06-.956.169-.49.17-1.012.88-1.17 1.376-.187.585.003 1.16.455 1.714a1.864 1.864 0 0 0 1.46.633zm-1.757 7.702l-.45.312.007.006a1.904 1.904 0 0 0-1.874-.237.247.247 0 0 0-.135.143.268.268 0 0 0 .06.284.249.249 0 0 0 .18.07.24.24 0 0 0 .095-.024 1.443 1.443 0 0 1 1.12.025c.276.122.425.29.425.387l.002.008c.002.02.005.038.01.056a.307.307 0 0 0 .011.042.27.27 0 0 0 .025.037c.01.016.02.031.033.045a.056.056 0 0 0 .004.006.25.25 0 0 0 .031.019c.015.01.03.02.046.027.017.006.034.01.052.011a.243.243 0 0 0 .036.008c.002 0 .005 0 .007-.002a.826.826 0 0 0 .094-.022.251.251 0 0 0 .035-.024.261.261 0 0 0 .044-.035l.006-.004c.298-.352.883-.196 1.204.028a.626.626 0 0 1 .15.137.241.241 0 0 0 .348.052.267.267 0 0 0 .05-.362 1.11 1.11 0 0 0-.275-.259 1.813 1.813 0 0 0-.238-.137 8.09 8.09 0 0 1 .459-.77c.2-.29.872-1.015 1.723-1.932.245-.263.5-.538.754-.814.725-.786 1.618-1.767 2.102-2.395.311-.408.442-.743.37-.943-.071-.193-.337-.248-.34-.249a.246.246 0 0 1-.027-.007c-1.06-.322-1.513.32-2.436 1.802a28.265 28.265 0 0 1-1.153 1.735l-.052.075c-1.146 1.627-1.645 2.31-2.502 2.9z" fill="#fff"/><path d="M19.999 9.809v-.007c-.044-.962-1.267-1.698-3.634-2.187-.07.075-.141.147-.211.22l-.214.222a.07.07 0 0 1-.013.016c-.26.268-.521.535-.77.793-.1.104-.203.207-.299.31.161.007.346.297.412.384a.261.261 0 0 0 .365.052 1.15 1.15 0 0 1 .973-.085.68.68 0 0 1 .458.51c.001.006.006.012.008.019a.29.29 0 0 0 .047.088c.005.005.006.012.011.018a.13.13 0 0 0 .013.008.259.259 0 0 0 .052.037l.028.015a.271.271 0 0 0 .07.015c.008 0 .015.004.022.004h.003a.269.269 0 0 0 .055-.006c.007-.001.012-.006.018-.008a.27.27 0 0 0 .047-.02.242.242 0 0 0 .044-.028c.005-.004.012-.005.017-.01.173-.164.514-.09.753.024.211.09.387.245.5.443-1.075.64-3.198 1.147-5.75 1.368-.98.084-1.991.127-3.006.127-3.786 0-7.212-.588-8.73-1.48l.03-.032c.321-.35.535-.561.924-.503.357.054.722.022 1.063-.095.06-.018.117-.035.17-.046a.538.538 0 0 1 .522.133.263.263 0 0 0 .366-.046.257.257 0 0 0-.046-.363 1.196 1.196 0 0 0-.506-.244.743.743 0 0 1 .378-.29 1.449 1.449 0 0 1 1.197.212.2.2 0 0 0 .019.01c.006.003.01.009.016.012a.26.26 0 0 0 .122.03l.024-.003a.26.26 0 0 0 .104-.03h.003a.26.26 0 0 0 .068-.06l.009-.008c.002-.003.003-.009.006-.013a.23.23 0 0 0 .016-.022 1.217 1.217 0 0 1 .84-.664.902.902 0 0 1 .746.179.649.649 0 0 1 .205.297.258.258 0 0 0 .229.176.263.263 0 0 0 .252-.142.257.257 0 0 0 .014-.197 1.184 1.184 0 0 0-.167-.32 1.326 1.326 0 0 1 1.526-.13.255.255 0 0 0 .036.01.278.278 0 0 0 .055.015c.016 0 .031 0 .047-.003a.26.26 0 0 0 .052-.007.288.288 0 0 0 .047-.023.256.256 0 0 0 .036-.017c.238-.183.53-.283.83-.287a1.024 1.024 0 0 1 .768.324.233.233 0 0 0 .024.018.265.265 0 0 0 .053.037.286.286 0 0 0 .097.026c.007 0 .013.004.019.004a.269.269 0 0 0 .037-.007l.026-.001c.225-.063.463-.056.684.02.028.01.058.016.088.016.099 0 .372-.058.425-.014.2-.261.427-.564.69-.923.058-.075.115-.155.175-.235l.003-.003.052-.07c.042-.057.083-.113.125-.173a29.456 29.456 0 0 0-3.259-.196C10.344 7 10.172 7 9.998 7 5.26 7 .21 7.959.013 9.737A.257.257 0 0 0 0 9.806C.026 15.333 4.605 20 10 20s9.976-4.65 10-10.156v-.03l-.001-.005z" fill="#fff"/></svg>