<svg width="50" height="50" fill="none" xmlns="http://www.w3.org/2000/svg"><path d="M50 8.871a4.037 4.037 0 0 0-4.032-4.032h-4.839C41.129 2.17 39.32 0 37.097 0c-2.224 0-4.032 2.17-4.032 4.839h-3.226C29.839 2.17 28.029 0 25.807 0c-2.224 0-4.033 2.17-4.033 4.839h-3.226C18.548 2.17 16.74 0 14.516 0c-2.223 0-4.032 2.17-4.032 4.839A4.037 4.037 0 0 0 6.452 8.87v28.226H0v4.032a4.037 4.037 0 0 0 4.032 4.032h2.42V50h40.322v-3.226H50V8.871zM37.097 1.613c1.334 0 2.42 1.447 2.42 3.226h-4.84c0-1.78 1.086-3.226 2.42-3.226zm-11.29 0c1.333 0 2.419 1.447 2.419 3.226h-4.839c0-1.78 1.086-3.226 2.42-3.226zm-11.29 0c1.333 0 2.419 1.447 2.419 3.226h-4.84c0-1.78 1.086-3.226 2.42-3.226zm-4.033 4.839h.235c.556 1.876 2.046 3.225 3.797 3.225V8.065c-.891 0-1.663-.654-2.083-1.613h9.576c.555 1.876 2.045 3.225 3.797 3.225V8.065c-.892 0-1.663-.654-2.083-1.613h9.575c.556 1.876 2.045 3.225 3.797 3.225V8.065c-.891 0-1.663-.654-2.083-1.613h7.748a4.004 4.004 0 0 0-.825 2.419v1.42H8.066V8.87a2.422 2.422 0 0 1 2.419-2.42zm-2.42 6.451h33.871V41.13a2.422 2.422 0 0 1-2.419 2.42 2.422 2.422 0 0 1-2.42-2.42v-4.032H8.066V12.903zM1.614 41.13v-2.42h33.87v2.42c0 .907.302 1.745.809 2.42H4.032a2.422 2.422 0 0 1-2.42-2.42zm46.774 4.032h-1.613v-33.87h-1.613v37.096H8.065v-3.226h31.451a4.037 4.037 0 0 0 4.032-4.032V8.871a2.422 2.422 0 0 1 2.42-2.42 2.422 2.422 0 0 1 2.42 2.42v36.29z" fill="#F1A645"/><path d="M46.774 7.064h-1.613v1.613h1.613V7.064zm-6.451 6.452H9.677v20.968h30.646V13.516zm-1.613 4.839h-3.226v-3.226h3.226v3.226zm-14.516 6.451v3.226h-3.226v-3.226h3.226zm-3.226-1.613v-3.225h3.226v3.226h-3.226zm4.838 1.613h3.226v3.226h-3.226v-3.226zm0-1.613v-3.225h3.226v3.226h-3.226zm4.84-3.225h3.225v3.226h-3.226v-3.226zm0-1.613v-3.226h3.225v3.226h-3.226zm-1.614 0h-3.226v-3.226h3.226v3.226zm-4.838 0h-3.226v-3.226h3.226v3.226zm-4.84 0H16.13v-3.226h3.226v3.226zm0 1.613v3.226H16.13v-3.226h3.226zm-4.838 3.226H11.29v-3.226h3.226v3.226zm0 1.612v3.226H11.29v-3.226h3.226zm1.613 0h3.226v3.226h-3.226v-3.226zm3.226 4.84v3.225h-3.226v-3.226h3.226zm1.613 0h3.226v3.225h-3.226v-3.226zm4.838 0h3.226v3.225h-3.226v-3.226zm4.84 0h3.225v3.225h-3.226v-3.226zm0-1.614v-3.226h3.225v3.226h-3.226zm4.838-3.226h3.226v3.226h-3.226v-3.226zm0-1.613v-3.225h3.226v3.226h-3.226zM14.516 15.13v3.226H11.29V15.13h3.226zM11.29 29.645h3.226v3.226H11.29v-3.226zm24.194 3.226v-3.226h3.226v3.226h-3.226zM4.839 39.323H3.226v1.613h1.613v-1.613zm3.226 0H6.452v1.613h1.613v-1.613zm3.225 0H9.677v1.613h1.613v-1.613z" fill="#F1A645"/></svg>