<svg width="48" height="48" fill="none" xmlns="http://www.w3.org/2000/svg"><path d="M34.865 22.956h-7.39c-.452-1.5-1.83-2.602-3.475-2.602-.604 0-1.185.165-1.715.448l-7.069-7.091a1.041 1.041 0 1 0-1.475 1.47l7.063 7.085a3.638 3.638 0 0 0-.45 1.734c0 1.646 1.104 3.025 2.605 3.476V37.54a1.041 1.041 0 1 0 2.084 0V27.475a3.635 3.635 0 0 0 2.433-2.435h7.39a1.041 1.041 0 1 0 0-2.084z" fill="#F1A645"/><path d="M24 0C10.219 0 0 10.208 0 24c0 13.781 10.219 24 24 24 13.792 0 24-10.219 24-24C48 10.208 37.792 0 24 0zm17.272 35.64a20.996 20.996 0 0 1-1.813 2.277l-2.199-2.135a1.041 1.041 0 1 0-1.473 1.473l2.202 2.138a20.72 20.72 0 0 1-12.945 5.386v-3.072a1.041 1.041 0 1 0-2.083 0v3.072A20.722 20.722 0 0 1 9.95 39.334l2.267-2.077a1.041 1.041 0 1 0-1.473-1.473l-2.258 2.068a20.717 20.717 0 0 1-5.264-12.811h3.072a1.041 1.041 0 1 0 0-2.083H3.222a20.72 20.72 0 0 1 5.354-12.913l2.168 2.17a1.038 1.038 0 0 0 1.473 0 1.041 1.041 0 0 0 0-1.474L10.05 8.572a20.888 20.888 0 0 1 4.523-3.126 20.669 20.669 0 0 1 8.387-2.227l.002 3.07a1.041 1.041 0 1 0 2.083 0l-.002-3.07a20.72 20.72 0 0 1 12.912 5.355l-2.167 2.166a1.041 1.041 0 1 0 1.473 1.473l2.167-2.166a20.718 20.718 0 0 1 5.354 12.91h-3.07a1.041 1.041 0 1 0 0 2.083h3.07c-.195 3.91-1.444 7.545-3.51 10.6z" fill="#F1A645"/></svg>