<svg width="637" height="796" viewBox="0 0 637 796" fill="none" xmlns="http://www.w3.org/2000/svg">
<path d="M348.729 45.5234C348.729 52.4872 343.082 58.1325 336.116 58.1325C329.15 58.1325 323.503 52.4872 323.503 45.5234C323.503 38.5596 329.15 32.9143 336.116 32.9143C343.082 32.9143 348.729 38.5596 348.729 45.5234Z" fill="#C4C4C4" fill-opacity="0.3"/>
<path d="M295.158 47.0727C295.158 54.0365 289.511 59.6818 282.545 59.6818C275.579 59.6818 269.932 54.0365 269.932 47.0727C269.932 40.1088 275.579 34.4635 282.545 34.4635C289.511 34.4635 295.158 40.1088 295.158 47.0727Z" fill="#C4C4C4" fill-opacity="0.3"/>
<path d="M242.918 59.0403C242.918 66.0041 237.271 71.6494 230.305 71.6494C223.339 71.6494 217.692 66.0041 217.692 59.0403C217.692 52.0764 223.339 46.4311 230.305 46.4311C237.271 46.4311 242.918 52.0764 242.918 59.0403Z" fill="#C4C4C4" fill-opacity="0.3"/>
<path d="M401.574 54.4519C401.574 61.4158 395.927 67.0611 388.961 67.0611C381.995 67.0611 376.348 61.4158 376.348 54.4519C376.348 47.4881 381.995 41.8428 388.961 41.8428C395.927 41.8428 401.574 47.4881 401.574 54.4519Z" fill="#C4C4C4" fill-opacity="0.3"/>
<path d="M194.018 80.966C194.018 87.9299 188.371 93.5751 181.405 93.5751C174.439 93.5751 168.792 87.9299 168.792 80.966C168.792 74.0022 174.439 68.3569 181.405 68.3569C188.371 68.3569 194.018 74.0022 194.018 80.966Z" fill="#C4C4C4" fill-opacity="0.3"/>
<path d="M150.336 112.008C150.336 118.972 144.688 124.617 137.722 124.617C130.756 124.617 125.109 118.972 125.109 112.008C125.109 105.044 130.756 99.3986 137.722 99.3986C144.688 99.3986 150.336 105.044 150.336 112.008Z" fill="#C4C4C4" fill-opacity="0.3"/>
<path d="M113.551 150.972C113.551 157.936 107.904 163.581 100.938 163.581C93.9718 163.581 88.3247 157.936 88.3247 150.972C88.3247 144.008 93.9718 138.363 100.938 138.363C107.904 138.363 113.551 144.008 113.551 150.972Z" fill="#C4C4C4" fill-opacity="0.3"/>
<path d="M600.997 283.53C600.997 290.494 595.35 296.14 588.384 296.14C581.417 296.14 575.77 290.494 575.77 283.53C575.77 276.567 581.417 270.921 588.384 270.921C595.35 270.921 600.997 276.567 600.997 283.53Z" fill="#C4C4C4" fill-opacity="0.3"/>
<path d="M451.661 73.5148C451.661 80.4787 446.014 86.124 439.048 86.124C432.082 86.124 426.435 80.4787 426.435 73.5148C426.435 66.551 432.082 60.9057 439.048 60.9057C446.014 60.9057 451.661 66.551 451.661 73.5148Z" fill="#C4C4C4" fill-opacity="0.3"/>
<path d="M497.065 101.98C497.065 108.944 491.418 114.589 484.452 114.589C477.486 114.589 471.839 108.944 471.839 101.98C471.839 95.0161 477.486 89.3708 484.452 89.3708C491.418 89.3708 497.065 95.0161 497.065 101.98Z" fill="#C4C4C4" fill-opacity="0.3"/>
<path d="M593.615 389.913C593.615 396.877 587.968 402.522 581.002 402.522C574.036 402.522 568.389 396.877 568.389 389.913C568.389 382.949 574.036 377.304 581.002 377.304C587.968 377.304 593.615 382.949 593.615 389.913Z" fill="#C4C4C4" fill-opacity="0.3"/>
<path d="M162.558 534.366C162.558 541.33 156.911 546.975 149.945 546.975C142.979 546.975 137.332 541.33 137.332 534.366C137.332 527.402 142.979 521.757 149.945 521.757C156.911 521.757 162.558 527.402 162.558 534.366Z" fill="#C4C4C4" fill-opacity="0.3"/>
<path d="M589.026 231.307C589.026 238.271 583.379 243.916 576.413 243.916C569.447 243.916 563.8 238.271 563.8 231.307C563.8 224.343 569.447 218.698 576.413 218.698C583.379 218.698 589.026 224.343 589.026 231.307Z" fill="#C4C4C4" fill-opacity="0.3"/>
<path d="M602.547 337.085C602.547 344.049 596.899 349.694 589.933 349.694C582.967 349.694 577.32 344.049 577.32 337.085C577.32 330.121 582.967 324.476 589.933 324.476C596.899 324.476 602.547 330.121 602.547 337.085Z" fill="#C4C4C4" fill-opacity="0.3"/>
<path d="M574.546 439.984C574.546 446.948 568.899 452.593 561.933 452.593C554.967 452.593 549.32 446.948 549.32 439.984C549.32 433.02 554.967 427.375 561.933 427.375C568.899 427.375 574.546 433.02 574.546 439.984Z" fill="#C4C4C4" fill-opacity="0.3"/>
<path d="M123.582 497.592C123.582 504.556 117.935 510.202 110.969 510.202C104.003 510.202 98.3555 504.556 98.3555 497.592C98.3555 490.629 104.003 484.983 110.969 484.983C117.935 484.983 123.582 490.629 123.582 497.592Z" fill="#C4C4C4" fill-opacity="0.3"/>
<path d="M207.962 562.831C207.962 569.795 202.315 575.44 195.349 575.44C188.383 575.44 182.736 569.795 182.736 562.831C182.736 555.867 188.383 550.222 195.349 550.222C202.315 550.222 207.962 555.867 207.962 562.831Z" fill="#C4C4C4" fill-opacity="0.3"/>
<path d="M567.093 182.422C567.093 189.386 561.446 195.031 554.48 195.031C547.514 195.031 541.867 189.386 541.867 182.422C541.867 175.458 547.514 169.813 554.48 169.813C561.446 169.813 567.093 175.458 567.093 182.422Z" fill="#C4C4C4" fill-opacity="0.3"/>
<path d="M70.5975 405.039C70.5975 412.003 64.9505 417.648 57.9845 417.648C51.0184 417.648 45.3713 412.003 45.3713 405.039C45.3713 398.075 51.0184 392.43 57.9845 392.43C64.9505 392.43 70.5975 398.075 70.5975 405.039Z" fill="#C4C4C4" fill-opacity="0.3"/>
<path d="M536.041 138.753C536.041 145.717 530.394 151.363 523.428 151.363C516.462 151.363 510.815 145.717 510.815 138.753C510.815 131.79 516.462 126.144 523.428 126.144C530.394 126.144 536.041 131.79 536.041 138.753Z" fill="#C4C4C4" fill-opacity="0.3"/>
<path d="M546.073 485.374C546.073 492.337 540.425 497.983 533.459 497.983C526.493 497.983 520.846 492.337 520.846 485.374C520.846 478.41 526.493 472.765 533.459 472.765C540.425 472.765 546.073 478.41 546.073 485.374Z" fill="#C4C4C4" fill-opacity="0.3"/>
<path d="M509.287 524.338C509.287 531.302 503.64 536.947 496.674 536.947C489.708 536.947 484.061 531.302 484.061 524.338C484.061 517.375 489.708 511.729 496.674 511.729C503.64 511.729 509.287 517.375 509.287 524.338Z" fill="#C4C4C4" fill-opacity="0.3"/>
<path d="M92.5301 453.924C92.5301 460.888 86.883 466.533 79.917 466.533C72.951 466.533 67.304 460.888 67.304 453.924C67.304 446.96 72.951 441.315 79.917 441.315C86.883 441.315 92.5301 446.96 92.5301 453.924Z" fill="#C4C4C4" fill-opacity="0.3"/>
<path d="M58.6258 352.816C58.6258 359.779 52.9787 365.425 46.0127 365.425C39.0467 365.425 33.3997 359.779 33.3997 352.816C33.3997 345.852 39.0467 340.206 46.0127 340.206C52.9787 340.206 58.6258 345.852 58.6258 352.816Z" fill="#C4C4C4" fill-opacity="0.3"/>
<path d="M310.893 590.823C310.893 597.786 305.246 603.432 298.28 603.432C291.314 603.432 285.667 597.786 285.667 590.823C285.667 583.859 291.314 578.214 298.28 578.214C305.246 578.214 310.893 583.859 310.893 590.823Z" fill="#C4C4C4" fill-opacity="0.3"/>
<path d="M364.465 589.273C364.465 596.237 358.817 601.882 351.851 601.882C344.885 601.882 339.238 596.237 339.238 589.273C339.238 582.309 344.885 576.664 351.851 576.664C358.817 576.664 364.465 582.309 364.465 589.273Z" fill="#C4C4C4" fill-opacity="0.3"/>
<path d="M258.049 581.894C258.049 588.858 252.402 594.503 245.436 594.503C238.47 594.503 232.823 588.858 232.823 581.894C232.823 574.93 238.47 569.285 245.436 569.285C252.402 569.285 258.049 574.93 258.049 581.894Z" fill="#C4C4C4" fill-opacity="0.3"/>
<path d="M57.0763 299.261C57.0763 306.225 51.4292 311.87 44.4632 311.87C37.4972 311.87 31.8501 306.225 31.8501 299.261C31.8501 292.297 37.4972 286.652 44.4632 286.652C51.4292 286.652 57.0763 292.297 57.0763 299.261Z" fill="#C4C4C4" fill-opacity="0.3"/>
<path d="M85.0765 196.362C85.0765 203.326 79.4294 208.971 72.4634 208.971C65.4974 208.971 59.8503 203.326 59.8503 196.362C59.8503 189.398 65.4974 183.753 72.4634 183.753C79.4294 183.753 85.0765 189.398 85.0765 196.362Z" fill="#C4C4C4" fill-opacity="0.3"/>
<path d="M66.0074 246.433C66.0074 253.397 60.3603 259.042 53.3943 259.042C46.4283 259.042 40.7812 253.397 40.7812 246.433C40.7812 239.469 46.4283 233.824 53.3943 233.824C60.3603 233.824 66.0074 239.469 66.0074 246.433Z" fill="#C4C4C4" fill-opacity="0.3"/>
<path d="M465.605 555.38C465.605 562.344 459.958 567.989 452.992 567.989C446.026 567.989 440.379 562.344 440.379 555.38C440.379 548.416 446.026 542.771 452.992 542.771C459.958 542.771 465.605 548.416 465.605 555.38Z" fill="#C4C4C4" fill-opacity="0.3"/>
<path d="M416.704 577.306C416.704 584.27 411.057 589.915 404.091 589.915C397.125 589.915 391.478 584.27 391.478 577.306C391.478 570.342 397.125 564.697 404.091 564.697C411.057 564.697 416.704 570.342 416.704 577.306Z" fill="#C4C4C4" fill-opacity="0.3"/>
</svg>
